<svg width="144" height="86" viewBox="0 0 144 86" fill="none" xmlns="http://www.w3.org/2000/svg">
<path opacity="0.0526316" d="M145.656 30.1682C142.205 25.8771 131.397 18.861 115.764 25.1254C96.2236 32.9559 89.1977 52.2495 71.8706 62.7007C59.0819 70.4144 24.4357 82.498 3.91306 71.0671" stroke="#1D2353" stroke-width="3"/>
<path opacity="0.105263" d="M149.219 39.2841C146.236 34.6559 136.22 26.5484 120.018 31.1444C99.766 36.8895 90.7618 55.343 72.4372 63.9258C58.9122 70.2604 23.1928 78.6563 3.9774 65.1429" stroke="#1D2353" stroke-width="3"/>
<path opacity="0.157895" d="M151.988 48.5504C149.505 43.6357 140.391 34.5256 123.798 37.4029C103.057 40.9996 92.1728 58.4109 73.0514 65.0311C58.9384 69.9174 22.537 74.5336 4.83944 59.0856" stroke="#1D2353" stroke-width="3"/>
<path opacity="0.210526" d="M153.953 57.8835C151.997 52.7362 143.886 42.7233 127.083 43.8505C106.079 45.2594 93.4345 61.4376 73.7259 66.0229C59.1794 69.4071 22.4949 70.1931 6.50906 52.9798" stroke="#1D2353" stroke-width="3"/>
<path opacity="0.263158" d="M155.11 67.1987C153.703 61.8752 146.683 51.0693 129.854 50.4338C108.818 49.6395 94.5517 64.4074 74.4717 66.9074C59.6512 68.7527 23.0855 65.6997 8.9865 46.9098" stroke="#1D2353" stroke-width="3"/>
<path opacity="0.315789" d="M155.466 76.4118C154.623 70.9704 148.771 59.4898 132.1 57.0988C111.263 54.1099 95.5311 67.3057 75.2998 67.6931C60.3677 67.9791 24.3214 61.1207 12.2637 40.9599" stroke="#1D2353" stroke-width="3"/>
<path opacity="0.368421" d="M155.036 85.4397C154.767 79.9401 150.146 67.9106 133.817 63.7901C113.406 58.6395 96.381 70.1187 76.2201 68.3892C61.3398 67.1128 26.2079 56.5241 16.3236 35.2134" stroke="#1D2353" stroke-width="3"/>
<path opacity="0.421053" d="M153.843 94.2012C154.15 88.7035 150.813 76.257 135.004 70.4522C115.243 63.1963 97.1114 72.833 77.2417 69.0056C62.5764 66.1807 28.7437 51.9778 21.1412 29.7506" stroke="#1D2353" stroke-width="3"/>
<path opacity="0.473684" d="M151.92 102.618C152.801 97.1826 150.782 84.4554 135.667 77.0299C116.772 67.7481 97.733 75.4368 78.3722 69.5534C64.0825 65.2111 31.9198 47.5495 26.6822 24.6494" stroke="#1D2353" stroke-width="3"/>
<path opacity="0.526316" d="M149.307 110.616C150.751 105.302 150.074 92.4336 135.817 83.4689C117.996 72.2629 98.2577 77.9193 79.618 70.0444C65.8604 64.2322 35.7201 43.3054 32.9049 19.9833" stroke="#1D2353" stroke-width="3"/>
<path opacity="0.578947" d="M146.051 118.125C148.042 112.991 148.714 100.122 135.473 89.7164C118.921 76.7091 98.6992 80.2713 80.9847 70.4911C67.9101 63.2727 40.1223 39.31 39.7604 15.8214" stroke="#1D2353" stroke-width="3"/>
<path opacity="0.631579" d="M142.207 125.08C144.724 120.183 146.737 107.454 134.656 95.7215C119.555 81.0553 99.0715 82.4842 82.4763 70.906C70.2278 62.3604 45.0971 35.6244 47.1924 12.2267" stroke="#1D2353" stroke-width="3"/>
<path opacity="0.684211" d="M137.836 131.423C140.851 126.816 144.183 114.368 133.395 101.436C119.909 85.272 99.3887 84.552 84.0947 71.3025C72.8066 61.5234 50.6082 32.307 55.1378 9.25645" stroke="#1D2353" stroke-width="3"/>
<path opacity="0.736842" d="M133.005 137.103C136.485 132.836 141.1 120.805 131.722 106.816C120 89.3308 99.6675 86.4697 85.8422 71.6942C75.6381 60.7888 56.6153 29.412 63.5294 6.96123" stroke="#1D2353" stroke-width="3"/>
<path opacity="0.789474" d="M127.785 142.075C131.692 138.195 137.54 126.712 129.676 111.82C119.845 93.2047 99.923 88.234 87.7179 72.0943C78.7097 60.1819 63.0708 26.9887 72.2938 5.38356" stroke="#1D2353" stroke-width="3"/>
<path opacity="0.842105" d="M122.253 146.302C126.544 142.851 133.561 132.042 127.296 116.41C119.466 96.8693 100.172 89.8434 89.7208 72.5163C82.0071 59.7276 69.9235 25.0815 81.3544 4.55881" stroke="#1D2353" stroke-width="3"/>
<path opacity="0.894737" d="M116.489 149.755C121.117 146.772 129.225 136.756 124.629 120.554C118.883 100.302 100.43 91.2978 91.8472 72.9732C85.5125 59.4483 77.1166 23.7288 90.6301 4.51341" stroke="#1D2353" stroke-width="3"/>
<path opacity="0.947368" d="M110.574 152.415C115.489 149.932 124.599 140.818 121.721 124.225C118.125 103.483 100.714 92.5994 94.0932 73.478C89.207 59.365 84.5908 22.9637 100.039 5.26608" stroke="#1D2353" stroke-width="3"/>
<path d="M104.592 154.27C109.74 152.314 119.752 144.203 118.625 127.399C117.216 106.395 101.038 93.7514 96.4529 74.0428C93.0686 59.4963 92.2826 22.8118 109.496 6.82595" stroke="#1D2353" stroke-width="3"/>
</svg>
