<svg width="141" height="80" viewBox="0 0 141 80" fill="none" xmlns="http://www.w3.org/2000/svg">
<path opacity="0.010101" d="M57.1546 53.5227L71.8996 25.7914C75.947 18.1793 84.4357 14.0391 92.9259 15.5362L123.856 20.9901C132.347 22.4871 138.907 29.2809 140.107 37.8182L144.478 68.9203C145.678 77.4576 141.244 85.7965 133.496 89.5758L105.266 103.344C97.5178 107.123 88.2168 105.483 82.228 99.2817L60.4104 76.6889C54.4216 70.4874 53.1072 61.1348 57.1546 53.5227Z" stroke="#1D2353" stroke-width="0.2"/>
<path opacity="0.020202" d="M56.7894 52.9313L71.9626 25.5581C76.1423 18.0178 84.7019 14.0264 93.1647 15.6714L123.887 21.6432C132.35 23.2882 138.791 30.1954 139.842 38.7524L143.656 69.8164C144.706 78.3734 140.128 86.6337 132.314 90.2772L103.949 103.504C96.1357 107.147 86.8648 105.345 80.9851 99.0403L59.6404 76.1508C53.7607 69.8457 52.6097 60.4716 56.7894 52.9313Z" stroke="#1D2353" stroke-width="0.2"/>
<path opacity="0.030303" d="M56.4378 52.3453L72.0313 25.3366C76.3419 17.8704 84.9698 14.029 93.4026 15.8214L123.908 22.3055C132.341 24.098 138.66 31.1166 139.562 39.6906L142.822 70.7068C143.723 79.2807 139.001 87.4599 131.125 90.9664L102.634 103.651C94.7581 107.158 85.52 105.194 79.7513 98.7875L58.8831 75.611C53.1144 69.2042 52.1271 59.8115 56.4378 52.3453Z" stroke="#1D2353" stroke-width="0.2"/>
<path opacity="0.040404" d="M56.1003 51.7649L72.106 25.127C76.5462 17.7372 85.2399 14.047 93.6401 15.9863L123.92 22.977C132.321 24.9164 138.517 32.0442 139.268 40.6326L141.977 71.591C142.728 80.1794 137.864 88.2749 129.928 91.6435L101.322 103.786C93.3858 107.155 84.1834 105.03 78.5273 98.5236L58.1392 75.0698C52.4832 68.5633 51.6601 59.1547 56.1003 51.7649Z" stroke="#1D2353" stroke-width="0.2"/>
<path opacity="0.050505" d="M55.7758 51.1899L72.1854 24.929C76.7539 17.6178 85.5107 14.0799 93.8758 16.1655L123.922 23.6569C132.287 25.7426 138.358 32.9775 138.96 41.5777L141.12 72.4686C141.721 81.0688 136.716 89.0781 128.723 92.3077L100.011 103.908C92.0179 107.137 82.854 104.853 77.3124 98.2484L57.4076 74.5268C51.866 67.9226 51.2072 58.5011 55.7758 51.1899Z" stroke="#1D2353" stroke-width="0.2"/>
<path opacity="0.0606061" d="M55.4647 50.6209L72.2701 24.7429C76.9655 17.5126 85.7827 14.128 94.1101 16.3593L123.915 24.3454C132.242 26.5768 138.186 33.9165 138.637 42.5259L140.252 73.3396C140.703 81.949 135.559 89.8697 127.511 92.9593L98.704 104.017C90.6555 107.107 81.5328 104.662 76.1073 97.9623L56.689 73.9827C51.2635 67.2828 50.7693 57.8513 55.4647 50.6209Z" stroke="#1D2353" stroke-width="0.2"/>
<path opacity="0.0707071" d="M55.1673 50.0581L72.3601 24.5688C77.181 17.4215 86.0559 14.1913 94.3431 16.5676L123.898 25.0423C132.185 27.4186 138 34.8609 138.3 43.4769L139.373 74.2038C139.674 82.8197 134.393 90.6495 126.292 93.5982L97.4002 104.114C89.299 107.062 80.2204 104.459 74.9126 97.6656L55.9837 73.4377C50.676 66.6441 50.3464 57.2054 55.1673 50.0581Z" stroke="#1D2353" stroke-width="0.2"/>
<path opacity="0.0808081" d="M54.8828 49.5018L72.4544 24.4068C77.3994 17.3448 86.3293 14.27 94.5738 16.7906L123.87 25.7474C132.115 28.268 137.799 35.8107 137.949 44.4306L138.484 75.0612C138.634 83.6811 133.217 91.4176 125.066 94.2243L96.0994 104.198C87.9479 107.005 78.9162 104.244 73.7278 97.3585L55.291 72.8921C50.1027 66.0069 49.9378 56.5639 54.8828 49.5018Z" stroke="#1D2353" stroke-width="0.2"/>
<path opacity="0.0909091" d="M54.6112 48.952L72.5533 24.2568C77.6207 17.2821 86.6029 14.3636 94.8022 17.0277L123.833 26.4604C132.032 29.1245 137.584 36.7652 137.584 45.3864V75.9114C137.584 84.5326 132.032 92.1733 123.833 94.8374L94.8022 104.27C86.6029 106.934 77.6207 104.016 72.5533 97.041L54.6112 72.3458C49.5438 65.3711 49.5438 55.9267 54.6112 48.952Z" stroke="#1D2353" stroke-width="0.2"/>
<path opacity="0.10101" d="M54.3523 48.4087L72.6562 24.1185C77.8446 17.2333 86.8764 14.472 95.0279 17.2788L123.785 27.1808C131.937 29.9876 137.354 37.724 137.204 46.3439L136.673 76.7539C136.522 85.3738 130.839 92.9165 122.594 95.4371L93.5084 104.329C85.2639 106.85 76.334 103.775 71.3891 96.7131L53.944 71.7989C48.9991 64.7369 49.1639 55.2939 54.3523 48.4087Z" stroke="#1D2353" stroke-width="0.2"/>
<path opacity="0.111111" d="M54.1061 47.8729L72.7633 23.9928C78.0711 17.1992 87.1496 14.596 95.2509 17.5446L123.728 27.9093C131.829 30.8579 137.11 38.6877 136.809 47.3036L135.752 77.5894C135.451 86.2054 129.636 93.6477 121.349 96.024L92.2187 104.377C83.9314 106.753 75.0566 103.523 70.2356 96.3758L53.2897 71.2525C48.4688 64.1052 48.7984 54.6665 54.1061 47.8729Z" stroke="#1D2353" stroke-width="0.2"/>
<path opacity="0.121212" d="M53.8725 47.3442L72.8742 23.8792C78.2997 17.1792 87.4223 14.7348 95.4709 17.8244L123.659 28.6449C131.708 31.7345 136.852 39.6553 136.401 48.2647L134.82 78.4172C134.369 87.0266 128.426 94.3663 120.098 96.5976L90.933 104.412C82.6056 106.644 73.7884 103.259 69.093 96.0288L52.6482 70.706C47.9527 63.4757 48.447 54.0442 53.8725 47.3442Z" stroke="#1D2353" stroke-width="0.2"/>
<path opacity="0.131313" d="M53.651 46.8232L72.9884 23.7778C78.53 17.1736 87.6939 14.8888 95.6873 18.1184L123.58 29.3879C131.574 32.6174 136.579 40.6268 135.977 49.227L133.879 79.2372C133.277 87.8375 127.207 95.0723 118.841 97.158L89.6514 104.436C81.2863 106.522 72.5296 102.984 67.961 95.6724L52.0192 70.16C47.4506 62.8489 48.1094 53.4274 53.651 46.8232Z" stroke="#1D2353" stroke-width="0.2"/>
<path opacity="0.141414" d="M53.4419 46.3097L73.1061 23.6886C78.7621 17.1821 87.9645 15.0576 95.9004 18.4262L123.491 30.1376C131.427 33.5062 136.291 41.6017 135.54 50.1901L132.927 80.0492C132.176 88.6376 125.98 95.7654 117.579 97.7048L88.3745 104.447C79.9743 106.387 71.2806 102.696 66.8403 95.3066L51.403 69.6145C46.9627 62.2247 47.7859 52.8162 53.4419 46.3097Z" stroke="#1D2353" stroke-width="0.2"/>
<path opacity="0.151515" d="M53.2448 45.8041L73.2269 23.6117C78.9956 17.2049 88.2337 15.2413 96.1096 18.7478L123.391 30.8942C131.267 34.4007 135.989 42.5798 135.088 51.1538L131.966 80.8531C131.065 89.4271 124.745 96.4457 116.313 98.2381L87.1022 104.447C78.6694 106.239 70.0415 102.398 65.7309 94.9318L50.7994 69.0698C46.4888 61.6036 47.4761 52.2109 53.2448 45.8041Z" stroke="#1D2353" stroke-width="0.2"/>
<path opacity="0.161616" d="M53.0598 45.3066L73.351 23.547C79.2306 17.2419 88.5016 15.4398 96.315 19.0833L123.28 31.6572C131.093 35.3007 135.672 43.561 134.622 52.1179L130.996 81.6487C129.945 90.2056 123.504 97.1129 115.041 98.7579L85.8352 104.435C77.3724 106.08 68.8128 102.089 64.6331 94.5483L50.2088 68.5261C46.0292 60.9858 47.1802 51.6118 53.0598 45.3066Z" stroke="#1D2353" stroke-width="0.2"/>
<path opacity="0.171717" d="M52.8862 44.8177L73.4774 23.4949C79.4662 17.2933 88.7672 15.6533 96.5159 19.4326L123.158 32.4269C130.907 36.2062 135.341 44.5451 134.141 53.0824L130.015 82.4361C128.816 90.9734 122.255 97.7672 113.765 99.2642L84.5729 104.412C76.0826 105.909 67.594 101.768 63.5466 94.1564L49.6304 67.9839C45.583 60.3718 46.8974 51.0193 52.8862 44.8177Z" stroke="#1D2353" stroke-width="0.2"/>
<path opacity="0.181818" d="M52.7242 44.3372L73.6064 23.4551C79.7025 17.359 89.0307 15.8815 96.7122 19.7955L123.025 33.2027C130.707 37.1166 134.995 45.5317 133.646 54.0467L129.026 83.215C127.677 91.73 120.999 98.4083 112.484 99.7569L83.3159 104.377C74.8008 105.725 66.3857 101.438 62.4718 93.7561L49.0646 67.4431C45.1507 59.7615 46.6281 50.4334 52.7242 44.3372Z" stroke="#1D2353" stroke-width="0.2"/>
<path opacity="0.191919" d="M52.574 43.8654L73.738 23.4275C79.9396 17.4387 89.2921 16.1243 96.9042 20.1717L122.882 33.9842C130.494 38.0316 134.634 46.5203 133.137 55.0105L128.028 83.985C126.531 92.4752 119.737 99.0359 111.2 100.236L82.0647 104.33C73.5274 105.53 65.1885 101.096 61.4092 93.3477L48.5117 66.9038C44.7324 59.1551 46.3724 49.8541 52.574 43.8654Z" stroke="#1D2353" stroke-width="0.2"/>
<path opacity="0.20202" d="M52.4342 43.4023L73.871 23.4122C80.1761 17.5325 89.5502 16.3815 97.0904 20.5612L122.727 34.7715C130.267 38.9511 134.258 47.5107 132.613 55.9735L127.02 84.7461C125.375 93.209 118.468 99.6501 109.911 100.701L80.8185 104.273C72.2616 105.324 64.0013 100.745 60.3578 92.9313L47.9704 66.3664C44.3269 58.5529 46.129 49.282 52.4342 43.4023Z" stroke="#1D2353" stroke-width="0.2"/>
<path opacity="0.212121" d="M52.3055 42.9485L74.0059 23.4093C80.4127 17.6406 89.8054 16.6534 97.2716 20.964L122.56 35.5644C130.026 39.875 133.868 48.5029 132.075 56.9357L126.004 85.4984C124.212 93.9312 117.193 100.251 108.619 101.152L79.5784 104.204C71.0044 105.105 62.8252 100.383 59.3187 92.5074L47.4416 65.8311C43.9351 57.9553 45.8987 48.7172 52.3055 42.9485Z" stroke="#1D2353" stroke-width="0.2"/>
<path opacity="0.222222" d="M52.1882 42.5038L74.143 23.4188C80.6495 17.7628 90.058 16.9396 97.4479 21.3799L122.383 36.3625C129.773 40.8028 133.463 49.4965 131.524 57.8967L124.98 86.2415C123.041 94.6418 115.913 100.838 107.324 101.589L78.3447 104.125C69.7563 104.876 61.6608 100.012 58.2923 92.076L46.9257 65.2981C43.5572 57.3622 45.6817 48.1598 52.1882 42.5038Z" stroke="#1D2353" stroke-width="0.2"/>
<path opacity="0.232323" d="M52.0805 42.0689L74.2805 23.4409C80.8847 17.8993 90.3062 17.2404 97.6174 21.809L122.194 37.1661C129.505 41.7346 133.043 50.4914 130.957 58.8565L123.946 86.9758C121.861 95.3409 114.626 101.412 106.026 102.013L77.1162 104.035C68.516 104.636 60.5067 99.6312 57.2771 91.6377L46.421 64.7679C43.1914 56.7744 45.4762 47.6105 52.0805 42.0689Z" stroke="#1D2353" stroke-width="0.2"/>
<path opacity="0.242424" d="M51.9835 41.6437L74.4195 23.4753C81.1195 18.0498 90.551 17.5556 97.7813 22.251L121.994 37.9746C129.224 42.67 132.608 51.4872 130.377 59.8146L122.905 87.7007C120.674 96.0281 113.334 101.972 104.725 102.423L75.8945 103.934C67.2851 104.385 59.3643 99.2412 56.2747 91.1926L45.9287 64.2404C42.8392 56.1918 45.2836 47.0692 51.9835 41.6437Z" stroke="#1D2353" stroke-width="0.2"/>
<path opacity="0.252525" d="M51.8975 41.2279L74.5603 23.5218C81.3539 18.2141 90.7926 17.8845 97.9399 22.7054L121.783 38.7874C128.93 43.6084 132.16 52.4832 129.784 60.7705L121.856 88.4158C119.48 96.703 112.038 102.518 103.422 102.818L74.68 103.822C66.064 104.123 58.2342 98.8418 55.2856 90.7405L45.4493 63.7155C42.5007 55.6142 45.1039 46.5356 51.8975 41.2279Z" stroke="#1D2353" stroke-width="0.2"/>
<path opacity="0.262626" d="M51.8208 40.8222L74.701 23.5807C81.5862 18.3924 91.0292 18.2276 98.0912 23.1725L121.559 39.6049C128.621 44.5498 131.696 53.4797 129.175 61.7242L120.799 89.1215C118.279 97.366 110.736 103.05 102.116 103.2L73.4714 103.7C64.8515 103.851 57.1151 98.4336 54.3083 90.2821L44.9811 63.1938C42.1743 55.0423 44.9356 46.0106 51.8208 40.8222Z" stroke="#1D2353" stroke-width="0.2"/>
<path opacity="0.272727" d="M51.754 40.4265L74.8423 23.6518C81.817 18.5844 91.2615 18.5844 98.2362 23.6518L121.324 40.4265C128.299 45.4939 131.218 54.4761 128.554 62.6754L119.735 89.8173C117.071 98.0166 109.43 103.568 100.809 103.568L72.2699 103.568C63.6487 103.568 56.0079 98.0166 53.3438 89.8173L44.5249 62.6754C41.8608 54.4761 44.7793 45.4939 51.754 40.4265Z" stroke="#1D2353" stroke-width="0.2"/>
<path opacity="0.282828" d="M51.6969 40.0414L74.984 23.7356C82.0461 18.7907 91.4891 18.9555 98.3743 24.1439L121.078 41.2525C127.963 46.4409 130.725 55.4726 127.918 63.6241L118.663 90.5037C115.856 98.6552 108.119 104.072 99.4994 103.922L71.0754 103.426C62.4555 103.275 54.9128 97.5914 52.3922 89.3469L44.0806 62.1607C41.56 53.9163 44.6348 44.9864 51.6969 40.0414Z" stroke="#1D2353" stroke-width="0.2"/>
<path opacity="0.292929" d="M51.6486 39.6669L75.1253 23.8317C82.2726 19.0108 91.7113 19.3404 98.5049 24.6481L120.82 42.0824C127.613 47.3902 130.217 56.4688 127.268 64.57L117.583 91.1803C114.634 99.2816 106.804 104.563 98.1883 104.262L69.8876 103.274C61.2716 102.973 53.8293 97.1582 51.453 88.871L43.6475 61.6499C41.2711 53.3627 44.5013 44.4878 51.6486 39.6669Z" stroke="#1D2353" stroke-width="0.2"/>
<path opacity="0.30303" d="M51.61 39.3025L75.267 23.9395C82.4974 19.2441 91.9289 19.7384 98.6288 25.1639L120.55 42.9156C127.25 48.3411 129.695 57.4637 126.605 65.5123L116.496 91.8464C113.407 99.895 105.486 105.039 96.8766 104.588L68.7076 103.111C60.0982 102.66 52.7585 96.7166 50.5271 88.3891L43.2264 61.1426C40.9951 52.8151 44.3797 43.998 51.61 39.3025Z" stroke="#1D2353" stroke-width="0.2"/>
<path opacity="0.313131" d="M51.5803 38.9493L75.4082 24.06C82.7194 19.4915 92.1409 20.1503 98.7451 25.6919L120.269 43.7525C126.873 49.2941 129.158 58.458 125.928 66.4515L115.403 92.5029C112.173 100.496 104.164 105.501 95.5638 104.9L67.5349 102.94C58.9347 102.338 51.6999 96.2676 49.6142 87.9025L42.8169 60.6397C40.7312 52.2746 44.2692 43.5179 51.5803 38.9493Z" stroke="#1D2353" stroke-width="0.2"/>
<path opacity="0.323232" d="M51.5593 38.6066L75.5488 24.1922C82.9386 19.752 92.3472 20.5751 98.8537 26.2311L119.976 44.5922C126.482 50.2483 128.607 59.4507 125.238 67.3865L114.303 93.1487C110.934 101.085 102.839 105.949 94.2503 105.197L66.3699 102.758C57.7815 102.007 50.6536 95.8107 48.7143 87.4104L42.4186 60.1407C40.4792 51.7405 44.1695 43.0468 51.5593 38.6066Z" stroke="#1D2353" stroke-width="0.2"/>
<path opacity="0.333333" d="M51.5466 38.2755L75.6885 24.3371C83.1547 20.0265 92.5474 21.0138 98.9542 26.7825L119.671 45.4356C126.077 51.2043 128.041 60.4424 124.534 68.3182L113.196 93.7848C109.689 101.661 101.51 106.383 92.9363 105.482L65.2124 102.568C56.6384 101.667 49.6198 95.3471 47.8274 86.9143L42.0315 59.6468C40.239 51.214 44.0805 42.5861 51.5466 38.2755Z" stroke="#1D2353" stroke-width="0.2"/>
<path opacity="0.343434" d="M51.5426 37.955L75.8276 24.4936C83.3678 20.314 92.7419 21.465 99.047 27.3446L119.354 46.2812C125.659 52.1609 127.461 61.4318 123.818 69.2452L112.083 94.4101C108.44 102.224 100.179 106.802 91.6225 105.752L64.0632 102.368C55.5062 101.317 48.599 94.876 46.954 86.4132L41.6559 59.157C40.0109 50.6942 44.0023 42.1347 51.5426 37.955Z" stroke="#1D2353" stroke-width="0.2"/>
<path opacity="0.353535" d="M51.5465 37.6464L75.9653 24.6628C83.5773 20.6154 92.9299 21.9298 99.1315 27.9186L119.025 47.13C125.227 53.1188 126.867 62.4198 123.088 70.1684L110.964 95.0255C107.185 102.774 98.846 107.208 90.3087 106.008L62.9219 102.159C54.3846 100.959 47.5908 94.3987 46.0937 85.9085L41.2913 58.6727C39.7943 50.1825 43.9344 41.6939 51.5465 37.6464Z" stroke="#1D2353" stroke-width="0.2"/>
<path opacity="0.363636" d="M51.5581 37.3489L76.1014 24.8435C83.783 20.9295 93.1111 22.407 99.2073 28.5031L118.685 47.9807C124.781 54.0769 126.258 63.405 122.345 71.0866L109.839 95.6299C105.925 103.311 97.5101 107.599 88.995 106.25L61.7886 101.941C53.2735 100.593 46.5952 93.9145 45.2466 85.3995L40.9375 58.193C39.5889 49.6779 43.8766 41.2628 51.5581 37.3489Z" stroke="#1D2353" stroke-width="0.2"/>
<path opacity="0.373737" d="M51.5776 37.063L76.2363 25.0361C83.985 21.2569 93.2859 22.8969 99.2747 29.0984L118.333 48.8337C124.322 55.0353 125.636 64.3878 121.589 71.9999L108.709 96.2238C104.661 103.836 96.1726 107.976 87.6823 106.479L60.6639 101.715C52.1736 100.218 45.613 93.4241 44.4131 84.8868L40.5949 57.7185C39.395 49.1812 43.829 40.8422 51.5776 37.063Z" stroke="#1D2353" stroke-width="0.2"/>
<path opacity="0.383838" d="M51.6044 36.7885L76.3692 25.2405C84.1826 21.597 93.4536 23.3991 99.3332 29.7042L117.969 49.6884C123.848 55.9936 124.999 65.3676 120.82 72.9079L107.572 96.8068C103.393 104.347 94.8332 108.338 86.3704 106.693L59.5475 101.48C51.0847 99.8346 44.6436 92.9274 43.5929 84.3705L40.2628 57.2492C39.2122 48.6923 43.7909 40.432 51.6044 36.7885Z" stroke="#1D2353" stroke-width="0.2"/>
<path opacity="0.393939" d="M51.6377 36.5262L76.4994 25.457C84.3753 21.9505 93.6134 23.9141 99.3821 30.3209L117.592 50.5453C123.361 56.9521 124.348 66.3448 120.038 73.811L106.43 97.3795C102.12 104.846 93.4917 108.687 85.0589 106.895L58.439 101.236C50.0062 99.4439 43.6866 92.4253 42.7855 83.8514L39.9408 56.7859C39.0396 48.2119 43.7619 40.0328 51.6377 36.5262Z" stroke="#1D2353" stroke-width="0.2"/>
<path opacity="0.40404" d="M51.6788 36.2755L76.6284 25.685C84.5642 22.3164 93.7666 24.441 99.4226 30.9475L117.205 51.4033C122.861 57.9098 123.684 67.3183 119.244 74.7081L105.284 97.941C100.844 105.331 92.1499 109.021 83.7497 107.082L57.3401 100.985C48.9399 99.0452 42.7438 91.9174 41.9924 83.329L39.6301 56.3279C38.8787 47.7395 43.7429 39.644 51.6788 36.2755Z" stroke="#1D2353" stroke-width="0.2"/>
<path opacity="0.414141" d="M51.7265 36.0371L76.7548 25.925C84.7482 22.6954 93.9121 24.9803 99.4538 31.5845L116.805 52.263C122.347 58.8672 123.005 68.2887 118.437 75.5999L104.132 98.492C99.5638 105.803 90.8071 109.341 82.442 107.255L56.2499 100.725C47.8848 98.6394 41.814 91.4045 41.2127 82.8043L39.3297 55.8762C38.7283 47.276 43.7331 39.2666 51.7265 36.0371Z" stroke="#1D2353" stroke-width="0.2"/>
<path opacity="0.424242" d="M51.7806 35.8107L76.8785 26.1765C84.9271 23.0869 94.0498 25.5313 99.4753 32.2313L116.394 53.1237C121.819 59.8236 122.313 69.2551 117.618 76.4855L102.976 99.0319C98.2807 106.262 89.4635 109.647 81.1361 107.416L55.1686 100.458C46.8412 98.2262 40.8976 90.8865 40.4464 82.2771L39.0394 55.4304C38.5882 46.821 43.732 38.9002 51.7806 35.8107Z" stroke="#1D2353" stroke-width="0.2"/>
<path opacity="0.434343" d="M51.8404 35.5963L76.999 26.4393C85.1003 23.4907 94.1789 26.094 99.4866 32.8876L115.97 53.9851C121.278 60.7787 121.607 70.2174 116.786 77.3647L101.815 99.5607C96.994 106.708 88.1191 109.938 79.8319 107.562L54.0958 100.182C45.8086 97.8059 39.994 90.3635 39.6931 81.7476L38.7588 54.9907C38.4579 46.3747 43.7392 38.5449 51.8404 35.5963Z" stroke="#1D2353" stroke-width="0.2"/>
<path opacity="0.444444" d="M51.9068 35.3944L77.117 26.7139C85.2685 23.9071 94.3003 26.6684 99.4886 33.5536L115.535 54.8475C120.723 61.7327 120.888 71.1757 115.943 78.2378L100.65 100.079C95.7049 107.141 86.775 110.216 78.5305 107.695L53.0327 99.8995C44.7882 97.3789 39.1044 89.8362 38.9539 81.2164L38.4886 54.5576C38.3382 45.9377 43.7553 38.2012 51.9068 35.3944Z" stroke="#1D2353" stroke-width="0.2"/>
<path opacity="0.454545" d="M51.9789 35.2049L77.2319 26.9998C85.4311 24.3357 94.4133 27.2542 99.4807 34.2289L115.088 55.7103C120.155 62.685 120.155 72.1294 115.088 79.1041L99.4808 100.586C94.4133 107.56 85.4311 110.479 77.2319 107.815L51.979 99.6095C43.7797 96.9454 38.2284 89.3047 38.2284 80.6834L38.2284 54.131C38.2284 45.5098 43.7797 37.869 51.9789 35.2049Z" stroke="#1D2353" stroke-width="0.2"/>
<path opacity="0.464646" d="M52.0563 35.0278L77.3431 27.2969C85.5876 24.7763 94.5174 27.8511 99.4624 34.9132L114.629 56.5733C119.574 63.6354 119.409 73.0784 114.221 79.9636L98.3074 101.081C93.119 107.966 84.0872 110.728 75.9357 107.921L50.9342 99.3122C42.7827 96.5054 37.3656 88.769 37.516 80.1491L37.9775 53.711C38.128 45.0911 43.8118 37.5484 52.0563 35.0278Z" stroke="#1D2353" stroke-width="0.2"/>
<path opacity="0.474747" d="M52.1391 34.8631L77.4509 27.605C85.7381 25.2287 94.613 28.4589 99.4339 35.6062L114.158 57.4363C118.979 64.5836 118.65 74.0223 113.342 80.8159L97.1305 101.566C91.8228 108.359 82.7442 110.962 74.6429 108.014L49.8991 99.0078C41.7978 96.0592 36.5166 88.2294 36.8175 79.6135L37.7364 53.2977C38.0373 44.6817 43.8519 37.2394 52.1391 34.8631Z" stroke="#1D2353" stroke-width="0.2"/>
<path opacity="0.484848" d="M52.2268 34.7111L77.5548 27.9245C85.8822 25.6932 94.6993 29.0778 99.3948 36.3081L113.676 58.2993C118.371 65.5297 117.877 74.9612 112.452 81.6611L95.95 102.039C90.5245 108.739 81.4018 111.183 73.3533 108.094L48.8734 98.6968C40.8248 95.6073 35.681 87.6865 36.1322 79.0771L37.5045 52.8916C37.9557 44.2822 43.8993 36.9425 52.2268 34.7111Z" stroke="#1D2353" stroke-width="0.2"/>
<path opacity="0.494949" d="M52.3196 34.5717L77.6551 28.2549C86.0202 26.1692 94.7769 29.7072 99.3455 37.0184L113.182 59.1618C117.751 66.473 117.092 75.8945 111.55 82.4987L94.7665 102.501C89.2249 109.105 80.061 111.39 72.0675 108.16L47.8577 98.3791C39.8643 95.1495 34.8595 87.1402 35.4609 78.54L37.2823 52.4924C37.8837 43.8922 43.9544 36.6574 52.3196 34.5717Z" stroke="#1D2353" stroke-width="0.2"/>
<path opacity="0.50505" d="M52.4169 34.4453L77.7512 28.5964C86.1515 26.6571 94.8451 30.3473 99.2854 37.7372L112.677 60.0242C117.117 67.414 116.294 76.8225 110.638 83.329L93.5798 102.952C87.9238 109.459 78.7214 111.583 70.7856 108.214L46.8517 98.0552C38.9159 94.6866 34.0516 86.5911 34.803 78.0027L37.0691 52.1009C37.8205 43.5125 44.0166 36.3847 52.4169 34.4453Z" stroke="#1D2353" stroke-width="0.2"/>
<path opacity="0.515152" d="M52.518 34.3316L77.8427 28.9487C86.2755 27.1562 94.9034 30.9976 99.214 38.4638L112.159 60.8856C116.47 68.3518 115.483 77.7445 109.714 84.1513L92.3898 103.392C86.6211 109.798 77.3831 111.762 69.5072 108.255L45.8551 97.7249C37.9793 94.2183 33.257 86.0392 34.1582 77.4652L36.8645 51.7166C37.7657 43.1427 44.0852 36.1241 52.518 34.3316Z" stroke="#1D2353" stroke-width="0.2"/>
<path opacity="0.525253" d="M52.6234 34.2307L77.9298 29.3116C86.3927 27.6666 94.9522 31.658 99.1319 39.1983L111.63 61.7461C115.81 69.2863 114.659 78.6604 108.779 84.9655L91.1973 103.82C85.3177 110.125 76.0468 111.927 68.2333 108.284L44.8686 97.3885C37.0551 93.745 32.4764 85.4847 33.527 76.9278L36.6688 51.3399C37.7195 42.7829 44.1606 35.8757 52.6234 34.2307Z" stroke="#1D2353" stroke-width="0.2"/>
<path opacity="0.535354" d="M52.7329 34.1427L78.0126 29.6852C86.5028 28.1881 94.9915 32.3283 99.0389 39.9404L111.09 62.6054C115.137 70.2175 113.823 79.57 107.834 85.7716L90.0026 104.237C84.0138 110.438 74.7128 112.078 66.9641 108.299L43.8923 97.0463C36.1437 93.267 31.7098 84.928 32.9096 76.3907L36.4821 50.9708C37.682 42.4335 44.2426 35.6397 52.7329 34.1427Z" stroke="#1D2353" stroke-width="0.2"/>
<path opacity="0.545455" d="M52.8458 34.0677L78.0905 30.0693C86.6055 28.7207 95.0206 33.0084 98.9346 40.6899L110.538 63.4635C114.452 71.145 112.975 80.4732 106.879 86.5693L88.8055 104.643C82.7093 110.739 73.3812 112.216 65.6996 108.302L42.926 96.6984C35.2445 92.7845 30.9568 84.3694 32.3054 75.8543L36.3038 50.6096C37.6525 42.0946 44.3307 35.4163 52.8458 34.0677Z" stroke="#1D2353" stroke-width="0.2"/>
<path opacity="0.555556" d="M52.962 34.0055L78.1634 30.4636C86.7007 29.2638 95.0396 33.6977 98.8189 41.4464L109.975 64.3198C113.754 72.0685 112.114 81.3695 105.913 87.3583L87.6062 105.037C81.4046 111.025 72.0521 112.34 64.44 108.292L41.9699 96.3449C34.3578 92.2975 30.2176 83.8088 31.7147 75.3186L36.1339 50.2562C37.6309 41.766 44.4247 35.2053 52.962 34.0055Z" stroke="#1D2353" stroke-width="0.2"/>
<path opacity="0.565657" d="M53.0814 33.9568L78.2312 30.8688C86.7882 29.8181 95.0485 34.3969 98.6919 42.2103L109.401 65.175C113.044 72.9884 111.242 82.2594 104.937 88.139L86.4052 105.42C80.1001 111.3 70.726 112.451 63.1857 108.271L41.024 95.9865C33.4838 91.8069 29.4924 83.2473 31.1374 74.7845L35.9722 49.9113C37.6172 41.4485 44.5245 35.0074 53.0814 33.9568Z" stroke="#1D2353" stroke-width="0.2"/>
<path opacity="0.575758" d="M53.2029 33.9206L78.293 31.2835C86.867 30.3823 95.0462 35.1045 98.5527 42.9804L108.814 66.0276C112.321 73.9035 110.357 83.1416 103.95 88.9103L85.2018 105.791C78.795 111.56 69.4023 112.547 61.9361 108.237L40.0878 95.6225C32.6216 91.3119 28.7802 82.684 30.5726 74.2511L35.8179 49.5741C37.6103 41.1413 44.6289 34.8217 53.2029 33.9206Z" stroke="#1D2353" stroke-width="0.2"/>
<path opacity="0.585859" d="M53.3279 33.8976L78.3503 31.7084C86.9387 30.9571 95.0342 35.8213 98.4027 43.7572L108.217 66.8784C111.586 74.8143 109.461 84.0167 102.955 89.6727L83.9979 106.152C77.4914 111.808 68.0828 112.631 60.693 108.19L39.1627 95.2538C31.7729 90.8135 28.0826 82.1198 30.022 73.7196L35.6723 49.2454C37.6117 40.8451 44.7395 34.649 53.3279 33.8976Z" stroke="#1D2353" stroke-width="0.2"/>
<path opacity="0.59596" d="M53.4547 33.8879L78.4015 32.1434C87.0017 31.542 95.011 36.5468 98.2406 44.5403L107.609 67.727C110.838 75.7204 108.553 84.8843 101.949 90.4259L82.7922 106.501C76.1879 112.042 66.7665 112.701 59.4553 108.132L38.2476 94.8804C30.9364 90.3118 27.3984 81.5551 29.4841 73.19L35.534 48.9252C37.6197 40.56 44.8545 34.4893 53.4547 33.8879Z" stroke="#1D2353" stroke-width="0.2"/>
<path opacity="0.606061" d="M53.5839 33.8911L78.4471 32.5881C87.0564 32.1369 94.9772 37.2807 98.0668 45.3293L106.989 68.573C110.079 76.6215 107.634 85.7442 100.934 91.1697L81.5856 106.838C74.8857 112.264 65.4541 112.758 58.2238 108.062L37.3431 94.5024C30.1128 89.8069 26.7282 80.9898 28.9595 72.6623L35.4034 48.6134C37.6348 40.2859 44.9745 34.3423 53.5839 33.8911Z" stroke="#1D2353" stroke-width="0.2"/>
<path opacity="0.616162" d="M53.7147 33.9074L78.4866 33.0424C87.1025 32.7415 94.9323 38.0228 97.8809 46.1241L106.359 69.4162C109.307 77.5175 106.704 86.5961 99.9104 91.9038L80.378 107.164C73.5844 112.472 64.1457 112.802 56.9984 107.981L36.449 94.1199C29.3017 89.299 26.0715 80.4241 28.4479 72.1369L35.2801 48.3101C37.6564 40.0229 45.0987 34.2083 53.7147 33.9074Z" stroke="#1D2353" stroke-width="0.2"/>
<path opacity="0.626263" d="M53.8471 33.9373L78.52 33.5067C87.1399 33.3562 94.8763 38.7733 97.6831 46.9248L105.717 70.257C108.524 78.4085 105.763 87.4403 98.8773 92.6287L79.1697 107.479C72.2845 112.668 62.8415 112.833 55.7794 107.888L35.5655 93.7338C28.5034 88.7889 25.4286 79.859 27.9492 71.6145L35.164 48.0161C37.6846 39.7716 45.2272 34.0878 53.8471 33.9373Z" stroke="#1D2353" stroke-width="0.2"/>
<path opacity="0.636364" d="M53.9811 33.98L78.5473 33.98C87.1686 33.98 94.8093 39.5313 97.4734 47.7305L105.065 71.0945C107.729 79.2937 104.81 88.2759 97.8357 93.3433L77.9612 107.783C70.9865 112.85 61.542 112.85 54.5673 107.783L34.6928 93.3433C27.7181 88.2759 24.7996 79.2937 27.4637 71.0945L35.0551 47.7306C37.7192 39.5313 45.3599 33.98 53.9811 33.98Z" stroke="#1D2353" stroke-width="0.2"/>
<path opacity="0.646465" d="M54.116 34.0359L78.5682 34.4627C87.1881 34.6132 94.7308 40.297 97.2514 48.5415L104.402 71.9288C106.922 80.1733 103.847 89.1032 96.7853 94.0482L76.7522 108.076C69.6901 113.02 60.2471 112.856 53.3619 107.667L33.8305 92.9493C26.9453 87.7609 24.184 78.7291 26.9908 70.5776L34.9529 47.4541C37.7597 39.3026 45.4961 33.8855 54.116 34.0359Z" stroke="#1D2353" stroke-width="0.2"/>
<path opacity="0.656566" d="M54.2518 34.105L78.5825 34.9546C87.1985 35.2555 94.6408 41.0701 97.0172 49.3573L103.728 72.7598C106.104 81.0471 102.874 89.9219 95.7266 94.7428L75.5432 108.357C68.3959 113.178 58.9572 112.848 52.1636 107.54L32.979 92.5516C26.1854 87.2439 23.5821 78.1653 26.5307 70.064L34.8574 47.1867C37.806 39.0854 45.6359 33.8041 54.2518 34.105Z" stroke="#1D2353" stroke-width="0.2"/>
<path opacity="0.666667" d="M54.388 34.1869L78.59 35.4553C87.1994 35.9065 94.5391 41.8501 96.7704 50.1775L103.043 73.587C105.274 81.9144 101.89 90.7316 94.6594 95.427L74.334 108.626C67.1036 113.322 57.6721 112.828 50.9722 107.402L32.1379 92.1504C25.4379 86.7249 22.9935 77.6023 26.0831 69.5537L34.7682 46.9281C37.8578 38.8795 45.7786 33.7357 54.388 34.1869Z" stroke="#1D2353" stroke-width="0.2"/>
<path opacity="0.676768" d="M54.5244 34.2822L78.5905 35.965C87.1907 36.5664 94.4256 42.6372 96.5112 51.0023L102.348 74.4106C104.433 82.7757 100.895 91.5325 93.5841 96.101L73.125 108.885C65.8138 113.454 56.3924 112.795 49.7881 107.253L31.3074 91.7462C24.7032 86.2046 22.4184 77.0407 25.6479 69.0472L34.6853 46.679C37.9148 38.6856 45.9242 33.6808 54.5244 34.2822Z" stroke="#1D2353" stroke-width="0.2"/>
<path opacity="0.686869" d="M54.661 34.3905L78.5842 36.4835C87.1726 37.2349 94.3004 43.431 96.2398 51.8313L101.642 75.2303C103.581 83.6306 99.891 92.3242 92.5012 96.7645L71.9167 109.133C64.5269 113.573 55.1184 112.75 48.6118 107.094L30.4878 91.339C23.9813 85.683 21.8568 76.4806 25.2254 68.5447L34.6086 46.4392C37.9772 38.5034 46.0726 33.6391 54.661 34.3905Z" stroke="#1D2353" stroke-width="0.2"/>
<path opacity="0.69697" d="M54.7979 34.5117L78.5711 37.0104C87.1451 37.9116 94.1637 44.2311 95.9561 52.664L100.926 76.0458C102.719 84.4786 98.8772 93.1065 91.411 97.4171L70.7093 109.369C63.2431 113.68 53.8504 112.693 47.4436 106.924L29.6793 90.9289C23.2725 85.1602 21.3089 75.9221 24.8155 68.0462L34.5382 46.2087C38.0448 38.3328 46.2239 33.6106 54.7979 34.5117Z" stroke="#1D2353" stroke-width="0.2"/>
<path opacity="0.707071" d="M54.9344 34.6461L78.5509 37.5459C87.1078 38.5965 94.0151 45.0377 95.6601 53.5005L100.2 76.8572C101.845 85.32 97.8537 93.8795 90.3135 98.0592L69.5029 109.595C61.9626 113.774 52.5886 112.623 46.2834 106.744L28.8817 90.5163C22.5765 84.6367 20.7745 75.3657 24.4179 67.5523L34.4737 45.9877C38.1171 38.1742 46.3774 33.5955 54.9344 34.6461Z" stroke="#1D2353" stroke-width="0.2"/>
<path opacity="0.717172" d="M55.07 34.7934L78.523 38.0895C87.0603 39.2893 93.8541 45.85 95.3512 54.3402L99.4638 77.664C100.961 86.1542 96.8206 94.6428 89.2086 98.6902L68.2973 109.809C60.6852 113.856 51.3327 112.542 45.1311 106.553L28.0946 90.1012C21.893 84.1124 20.253 74.8114 24.0323 67.0627L34.4145 45.7761C38.1938 38.0275 46.5327 33.5936 55.07 34.7934Z" stroke="#1D2353" stroke-width="0.2"/>
<path opacity="0.727273" d="M55.2047 34.9539L78.4877 38.6416C87.0028 39.9902 93.681 46.6685 95.0296 55.1835L98.7173 78.4665C100.066 86.9815 95.7782 95.3966 88.0967 99.3105L67.0929 110.013C59.4113 113.926 50.0831 112.449 43.987 106.353L27.3183 89.6842C21.2222 83.5881 19.7447 74.2599 23.6587 66.5783L34.3607 45.5745C38.2746 37.8929 46.6897 33.6053 55.2047 34.9539Z" stroke="#1D2353" stroke-width="0.2"/>
<path opacity="0.737374" d="M55.3386 35.127L78.4449 39.2013C86.9352 40.6983 93.4958 47.4921 94.6957 56.0294L97.9611 79.2639C99.1609 87.8012 94.727 96.1401 86.9783 99.9194L65.8901 110.205C58.1414 113.984 48.8404 112.344 42.8516 106.143L26.553 89.2648C20.5642 83.0632 19.2498 73.7107 23.2972 66.0986L34.3123 45.3822C38.3597 37.7701 46.8483 33.6299 55.3386 35.127Z" stroke="#1D2353" stroke-width="0.2"/>
<path opacity="0.747475" d="M55.4705 35.3133L78.3939 39.7691C86.8567 41.4141 93.2978 48.3214 94.3485 56.8783L97.1944 80.0567C98.2451 88.6137 93.6663 96.874 85.8529 100.517L64.6883 110.387C56.8749 114.03 47.6039 112.228 41.7243 105.923L25.7979 88.8439C19.9183 82.5388 18.7673 73.1647 22.9469 65.6245L34.2685 45.1999C38.4481 37.6596 47.0077 33.6683 55.4705 35.3133Z" stroke="#1D2353" stroke-width="0.2"/>
<path opacity="0.757576" d="M55.6014 35.5122L78.3357 40.3445C86.7685 42.1369 93.088 49.1555 93.9892 57.7295L96.4187 80.8443C97.3198 89.4183 92.5976 97.5974 84.7218 101.104L63.489 110.557C55.6132 114.064 46.3751 112.1 40.6064 105.694L25.0544 88.4213C19.2856 82.0145 18.2984 72.6218 22.609 65.1556L34.2301 45.0273C38.5407 37.5611 47.1686 33.7197 55.6014 35.5122Z" stroke="#1D2353" stroke-width="0.2"/>
<path opacity="0.767677" d="M55.731 35.7239L78.2699 40.9274C86.6701 42.8668 92.8662 49.9946 93.6176 58.583L95.6337 81.6267C96.3851 90.2151 91.5208 98.3106 83.585 101.679L62.2921 110.717C54.3562 114.086 45.1538 111.962 39.4978 105.455L24.322 87.9972C18.666 81.4907 17.8428 72.0822 22.2831 64.6924L34.1968 44.8646C38.6371 37.4748 47.3307 33.7845 55.731 35.7239Z" stroke="#1D2353" stroke-width="0.2"/>
<path opacity="0.777778" d="M55.8576 35.9484L78.1952 41.5178C86.5603 43.6035 92.6311 50.8384 93.2325 59.4386L94.8384 82.4039C95.4398 91.0041 90.435 99.0135 82.4415 102.243L61.0964 110.867C53.103 114.097 43.9391 111.812 38.3975 105.208L23.5996 87.5721C18.058 80.9679 17.3992 71.5464 21.9677 64.2352L34.1672 44.7119C38.7357 37.4007 47.4925 33.8628 55.8576 35.9484Z" stroke="#1D2353" stroke-width="0.2"/>
<path opacity="0.787879" d="M55.9823 36.1855L78.1127 42.1153C86.4402 44.3467 92.3838 51.6864 92.835 60.2958L94.034 83.1755C94.4852 91.7849 89.3414 99.7056 81.2928 102.795L59.9035 111.006C51.8549 114.095 42.7323 111.651 37.3068 104.951L22.8884 87.1458C17.4629 80.4458 16.9686 71.0143 21.664 63.784L34.1423 44.5691C38.8377 37.3388 47.6549 33.9542 55.9823 36.1855Z" stroke="#1D2353" stroke-width="0.2"/>
<path opacity="0.79798" d="M56.1047 36.4351L78.0221 42.7199C86.3094 45.0962 92.124 52.5385 92.4248 61.1545L93.2206 83.9413C93.5214 92.5573 88.2402 100.387 80.1389 103.336L58.7132 111.134C50.6119 114.083 41.5333 111.479 36.2256 104.686L22.188 86.7186C16.8803 79.925 16.5507 70.4863 21.3716 63.339L34.1216 44.4363C38.9425 37.289 47.8174 34.0588 56.1047 36.4351Z" stroke="#1D2353" stroke-width="0.2"/>
<path opacity="0.808081" d="M56.2241 36.6972L77.9231 43.3313C86.1676 45.8519 91.8514 53.3945 92.0018 62.0144L92.3978 84.7014C92.5483 93.3212 87.1312 101.058 78.9797 103.864L57.5255 111.252C49.374 114.059 40.3422 111.297 35.1538 104.412L21.4984 86.2907C16.31 79.4055 16.1452 69.9625 21.0901 62.9004L34.1048 44.3135C39.0497 37.2515 47.9796 34.1766 56.2241 36.6972Z" stroke="#1D2353" stroke-width="0.2"/>
<path opacity="0.818182" d="M56.3403 36.9719L77.8152 43.9495C86.0144 46.6136 91.5657 54.2543 91.5657 62.8755L91.5657 85.4555C91.5657 94.0767 86.0144 101.717 77.8152 104.382L56.3403 111.359C48.141 114.023 39.1588 111.105 34.0914 104.13L20.8192 85.8625C15.7518 78.8878 15.7518 69.4433 20.8192 62.4686L34.0914 44.201C39.1588 37.2263 48.141 34.3078 56.3403 36.9719Z" stroke="#1D2353" stroke-width="0.2"/>
<path opacity="0.828283" d="M56.4536 37.2587L77.6991 44.5741C85.8507 47.3809 91.2678 55.1173 91.1173 63.7372L90.7252 86.2035C90.5747 94.8234 84.8909 102.366 76.6464 104.887L55.1585 111.456C46.914 113.977 37.9841 110.902 33.0392 103.84L20.1511 85.4338C15.2062 78.3717 15.371 68.9287 20.5594 62.0435L34.082 44.0984C39.2703 37.2132 48.3021 34.4519 56.4536 37.2587Z" stroke="#1D2353" stroke-width="0.2"/>
<path opacity="0.838384" d="M56.5637 37.5577L77.5746 45.2051C85.6759 48.1537 90.9572 55.9835 90.6563 64.5995L89.876 86.9452C89.5751 95.5611 83.7605 103.003 75.4733 105.38L53.9801 111.543C45.6929 113.919 36.818 110.689 31.9971 103.542L19.4939 85.005C14.673 77.8577 15.0026 68.419 20.3103 61.6254L34.0761 44.0059C39.3838 37.2123 48.4624 34.6091 56.5637 37.5577Z" stroke="#1D2353" stroke-width="0.2"/>
<path opacity="0.848485" d="M56.6701 37.8691L77.4414 45.8424C85.4899 48.9319 90.6338 56.8527 90.1826 65.4621L89.0182 87.6806C88.5669 96.29 82.6234 103.63 74.2959 105.861L52.805 111.62C44.4776 113.851 35.6604 110.466 30.965 103.236L18.8473 84.5764C14.1519 77.346 14.6461 67.9145 20.0716 61.2146L34.0734 43.9238C39.4989 37.2239 48.6215 34.7795 56.6701 37.8691Z" stroke="#1D2353" stroke-width="0.2"/>
<path opacity="0.858586" d="M56.7729 38.1925L77.2995 46.4858C85.2929 49.7153 90.2977 57.7247 89.6963 66.3249L88.152 88.4096C87.5506 97.0098 81.4799 104.245 73.1147 106.33L51.6337 111.686C43.2686 113.772 34.5118 110.234 29.9433 102.923L18.2116 84.1481C13.643 76.8369 14.3018 67.4154 19.8434 60.8112L34.0739 43.852C39.6155 37.2478 48.7794 34.9629 56.7729 38.1925Z" stroke="#1D2353" stroke-width="0.2"/>
<path opacity="0.868687" d="M56.871 38.5278L77.1482 47.135C85.0841 50.5035 89.9483 58.599 89.1969 67.1874L87.277 89.1319C86.5257 97.7203 80.3295 104.848 71.9293 106.787L50.4655 111.743C42.0653 113.682 33.3716 109.992 28.9314 102.602L17.586 83.7201C13.1457 76.3303 13.9689 66.9218 19.6249 60.4153L34.0768 43.7903C39.7328 37.2838 48.9352 35.1592 56.871 38.5278Z" stroke="#1D2353" stroke-width="0.2"/>
<path opacity="0.878788" d="M56.9652 38.8752L76.9882 47.7901C84.8641 51.2966 89.5863 59.4757 88.6852 68.0497L86.3941 89.8476C85.4929 98.4216 79.1734 105.44 70.7406 107.233L49.3015 111.79C40.8687 113.582 32.2408 109.741 27.9302 102.275L16.9712 83.293C12.6606 75.8268 13.6478 66.4341 19.4165 60.0273L34.0825 43.739C39.8512 37.3322 49.0893 35.3686 56.9652 38.8752Z" stroke="#1D2353" stroke-width="0.2"/>
<path opacity="0.888889" d="M57.0549 39.234L76.8193 48.4503C84.6328 52.0938 89.2115 60.3541 88.1609 68.911L85.5032 90.5561C84.4525 99.113 78.0114 106.02 69.5486 107.665L48.1416 111.826C39.6788 113.471 31.1192 109.48 26.9396 101.94L16.367 82.8663C12.1874 75.326 13.3384 65.952 19.218 59.6468L34.0908 43.6977C39.9705 37.3926 49.2414 35.5905 57.0549 39.234Z" stroke="#1D2353" stroke-width="0.2"/>
<path opacity="0.89899" d="M57.1397 39.6047L76.6411 49.1161C84.3898 52.8954 88.8237 61.2344 87.6238 69.7717L84.6041 91.2578C83.4043 99.7951 76.8436 106.589 68.3534 108.086L46.9857 111.854C38.4955 113.351 30.0069 109.211 25.9595 101.598L15.7732 82.4409C11.7258 74.8288 13.0402 65.4763 19.029 59.2747L34.1012 43.667C40.09 37.4654 49.391 35.8254 57.1397 39.6047Z" stroke="#1D2353" stroke-width="0.2"/>
<path opacity="0.909091" d="M57.2197 39.9872L76.4538 49.7875C84.1354 53.7015 88.4231 62.1165 87.0744 70.6316L83.6975 91.9528C82.3488 100.468 75.6706 107.146 67.1555 108.495L45.8343 111.872C37.3193 113.22 28.9042 108.933 24.9903 101.251L15.19 82.0169C11.2761 74.3354 12.7535 65.0072 18.8496 58.9111L34.1139 43.6468C40.21 37.5507 49.5382 36.0733 57.2197 39.9872Z" stroke="#1D2353" stroke-width="0.2"/>
<path opacity="0.919192" d="M57.295 40.3807L76.2578 50.4634C83.8698 54.5108 88.01 62.9994 86.5129 71.4896L82.7836 92.64C81.2865 101.13 74.4927 107.691 65.9554 108.891L44.6878 111.88C36.1505 113.08 27.8116 108.646 24.0323 100.897L14.6176 81.5939C10.8383 73.8452 12.4783 64.5442 18.6799 58.5554L34.1289 43.6365C40.3304 37.6477 49.683 36.3333 57.295 40.3807Z" stroke="#1D2353" stroke-width="0.2"/>
<path opacity="0.929293" d="M57.3643 40.7857L76.0516 51.1443C83.5919 55.3239 87.5833 63.8835 85.9383 72.3463L81.8614 93.32C80.2164 101.783 73.3092 108.224 64.7522 109.275L43.5452 111.878C34.9883 112.929 26.728 108.35 23.0845 100.537L14.0547 81.1725C10.4113 73.359 12.2134 64.0881 18.5185 58.2085L34.1448 43.6367C40.4499 37.7571 49.824 36.6061 57.3643 40.7857Z" stroke="#1D2353" stroke-width="0.2"/>
<path opacity="0.939394" d="M57.4285 41.2018L75.8367 51.8297C83.3028 56.1403 87.1442 64.7683 85.3518 73.2011L80.9324 93.9925C79.14 102.425 72.1214 108.745 63.5474 109.646L42.4079 111.868C33.834 112.769 25.6548 108.047 22.1483 100.171L13.5027 80.7527C9.99616 72.8769 11.9598 63.6388 18.3666 57.8701L34.1628 43.6471C40.5696 37.8784 49.9623 36.8912 57.4285 41.2018Z" stroke="#1D2353" stroke-width="0.2"/>
<path opacity="0.949495" d="M57.4868 41.6294L75.6121 52.5202C83.0019 56.9605 86.6922 65.6541 84.7528 74.0544L79.9961 94.658C78.0567 103.058 70.9289 109.254 62.3405 110.006L41.2754 111.849C32.687 112.6 24.5916 107.736 21.223 99.8L12.9608 80.3354C9.59218 72.3995 11.7167 63.1971 18.2232 57.5411L34.182 43.6683C40.6885 38.0123 50.097 37.1892 57.4868 41.6294Z" stroke="#1D2353" stroke-width="0.2"/>
<path opacity="0.959596" d="M57.5389 42.0674L75.3777 53.2144C82.6889 57.7829 86.2269 66.5397 84.1412 74.9048L79.0523 95.3152C76.9667 103.68 69.7318 109.751 61.1316 110.352L40.1476 111.82C31.5474 112.421 23.5381 107.416 20.3085 99.423L12.4286 79.9194C9.19903 71.926 11.4839 62.7621 18.0881 57.2205L34.202 43.6993C40.8062 38.1577 50.2277 37.4989 57.5389 42.0674Z" stroke="#1D2353" stroke-width="0.2"/>
<path opacity="0.969697" d="M57.5852 42.5166L75.1343 53.9131C82.3646 58.6085 85.7492 67.4257 83.5179 75.7531L78.1021 95.965C75.8708 104.292 68.5311 110.236 59.9217 110.687L39.0255 111.782C30.4161 112.234 22.4953 107.09 19.4058 99.0411L11.907 79.5061C8.8174 71.4575 11.2618 62.3349 17.9617 56.9094L34.2234 43.7409C40.9233 38.3154 50.3549 37.8211 57.5852 42.5166Z" stroke="#1D2353" stroke-width="0.2"/>
<path opacity="0.979798" d="M57.6255 42.9761L74.8815 54.6154C82.0288 59.4363 85.259 68.3112 82.8827 76.5984L77.1454 96.6066C74.7691 104.894 67.3268 110.708 58.7108 111.009L37.909 111.736C29.293 112.037 21.4632 106.755 18.5146 98.654L11.3956 79.0948C8.44699 70.9935 11.0502 61.9149 17.8438 56.6072L34.2459 43.7925C41.0395 38.4847 50.4782 38.1551 57.6255 42.9761Z" stroke="#1D2353" stroke-width="0.2"/>
<path opacity="0.989899" d="M57.6589 43.4464L74.6188 55.3219C81.6808 60.2668 84.7556 69.1967 82.235 77.4412L76.1817 97.2407C73.6611 105.485 66.1185 111.169 57.4986 111.319L36.7975 111.681C28.1777 111.831 20.4412 106.414 17.6344 98.2627L10.8938 78.6865C8.08702 70.535 10.8483 61.5032 17.7335 56.3148L34.2686 43.8547C41.1538 38.6664 50.5968 38.5015 57.6589 43.4464Z" stroke="#1D2353" stroke-width="0.2"/>
<path d="M57.686 43.9271L74.3467 56.0318C81.3214 61.0993 84.2399 70.0815 81.5758 78.2807L75.212 97.8666C72.5479 106.066 64.9072 111.617 56.286 111.617H35.6921C27.0709 111.617 19.4302 106.066 16.7661 97.8666L10.4022 78.2807C7.73815 70.0815 10.6566 61.0993 17.6313 56.0319L34.2921 43.9271C41.2668 38.8597 50.7113 38.8597 57.686 43.9271Z" stroke="#1D2353" stroke-width="0.2"/>
</svg>
