<svg xmlns="http://www.w3.org/2000/svg" width="20" height="20" viewBox="0 0 20 20" fill="none">
    <path
        d="M5 9.165C4.53884 9.165 4.165 9.53884 4.165 10C4.165 10.4612 4.53884 10.835 5 10.835V9.165ZM15 10.835C15.4612 10.835 15.835 10.4612 15.835 10C15.835 9.53884 15.4612 9.165 15 9.165V10.835ZM2.5 4.165C2.03884 4.165 1.665 4.53884 1.665 5C1.665 5.46116 2.03884 5.835 2.5 5.835V4.165ZM17.5 5.835C17.9612 5.835 18.335 5.46116 18.335 5C18.335 4.53884 17.9612 4.165 17.5 4.165V5.835ZM7.5 14.165C7.03884 14.165 6.665 14.5388 6.665 15C6.665 15.4612 7.03884 15.835 7.5 15.835V14.165ZM12.5 15.835C12.9612 15.835 13.335 15.4612 13.335 15C13.335 14.5388 12.9612 14.165 12.5 14.165V15.835ZM5 10.835H15V9.165H5V10.835ZM2.5 5.835H17.5V4.165H2.5V5.835ZM7.5 15.835H12.5V14.165H7.5V15.835Z"
        fill="#344054" />
</svg>