<svg width="201" height="38" viewBox="0 0 201 38" fill="none" xmlns="http://www.w3.org/2000/svg">
    <path
        d="M36.7917 13.4442C36.7106 13.178 36.6232 12.9129 36.5297 12.6508H35.6747C35.7744 12.9119 35.8658 13.177 35.9511 13.4442C36.4937 15.1295 36.7866 16.9269 36.7866 18.79C36.7866 28.4385 28.9375 36.2876 19.2889 36.2876C17.6416 36.2876 16.0467 36.0595 14.5351 35.631C14.2679 35.556 14.0038 35.4737 13.7417 35.3854C6.80412 33.0608 1.79128 26.4983 1.79128 18.7889C1.79334 9.1435 9.64247 1.29334 19.291 1.29334C24.2525 1.29334 28.7381 3.36918 31.9248 6.69668C32.1715 6.95359 32.4099 7.2177 32.6401 7.49002H33.678C33.4653 7.21975 33.2443 6.95565 33.0152 6.69668C32.7624 6.40997 32.4983 6.13045 32.2259 5.8571C28.77 2.40319 24.1764 0.5 19.291 0.5C14.4056 0.5 9.81203 2.40319 6.3571 5.8571C2.90217 9.31203 1 13.9056 1 18.79C1 23.6744 2.90217 28.2689 6.3571 31.7239C9.81306 35.1788 14.4056 37.081 19.291 37.081C24.1764 37.081 28.77 35.1778 32.2249 31.7239C35.6798 28.2689 37.582 23.6754 37.582 18.79C37.582 16.9515 37.3128 15.1542 36.7928 13.4442H36.7917Z"
        fill="black" stroke="black" stroke-width="0.308293" stroke-miterlimit="10" />
    <path
        d="M36.7918 13.4442H17.6489C15.9337 13.4442 14.5372 14.8407 14.5372 16.5559V35.7214H13.7438V16.5559C13.7438 14.4019 15.496 12.6508 17.6489 12.6508H36.5297C36.6233 12.9129 36.7106 13.178 36.7918 13.4442Z"
        fill="black" stroke="black" stroke-width="0.308293" stroke-miterlimit="10" />
    <path
        d="M18.921 37.0861H18.1277V21.1977C18.1277 19.9039 19.181 18.8506 20.4748 18.8506H27.8985V19.6439H20.4748C19.6178 19.6439 18.921 20.3407 18.921 21.1977V37.0861Z"
        fill="black" stroke="black" stroke-width="0.308293" stroke-miterlimit="10" />
    <path
        d="M14.5372 1.64893V11.468C14.2515 11.6643 13.9154 11.9058 13.6729 12.1525L13.7438 1.64893H14.5372Z"
        fill="black" stroke="black" stroke-width="0.308293" stroke-miterlimit="10" />
    <path
        d="M18.92 0.727112V11.4711C18.92 11.4989 18.8902 11.5153 18.8666 11.5019L18.4216 11.2389C18.2387 11.131 18.1267 10.9347 18.1267 10.722V0.727112H18.92Z"
        fill="black" stroke="black" stroke-width="0.308293" stroke-miterlimit="10" />
    <path d="M18.1267 15.0309H18.92V17.5825C18.6364 17.7048 18.3713 17.859 18.1267 18.0419V15.0309Z"
        fill="black" stroke="black" stroke-width="0.308293" stroke-miterlimit="10" />
    <path
        d="M33.677 7.48999H18.5234V6.69666H33.0142C33.2423 6.95562 33.4643 7.22075 33.677 7.48999Z"
        fill="black" stroke="black" stroke-width="0.308293" stroke-miterlimit="10" />
    <path
        d="M46.1974 20.5V5.56383H56.0868V8.16745H49.3553V11.7265H55.4304V14.3301H49.3553V20.5H46.1974ZM67.4366 5.56383H70.5945V15.2636C70.5945 16.3527 70.3343 17.3056 69.8141 18.1225C69.2987 18.9393 68.5767 19.5762 67.6481 20.0332C66.7194 20.4854 65.6376 20.7115 64.4027 20.7115C63.1629 20.7115 62.0786 20.4854 61.15 20.0332C60.2213 19.5762 59.4993 18.9393 58.9839 18.1225C58.4686 17.3056 58.2109 16.3527 58.2109 15.2636V5.56383H61.3688V14.9937C61.3688 15.5626 61.4927 16.0683 61.7407 16.5107C61.9935 16.9531 62.3485 17.3008 62.8055 17.5536C63.2625 17.8064 63.7949 17.9328 64.4027 17.9328C65.0153 17.9328 65.5477 17.8064 65.9998 17.5536C66.4569 17.3008 66.8094 16.9531 67.0573 16.5107C67.3102 16.0683 67.4366 15.5626 67.4366 14.9937V5.56383ZM73.1926 20.5V5.56383H76.3505V17.8964H82.7538V20.5H73.1926ZM97.442 10.793H94.2476C94.1893 10.3797 94.0702 10.0126 93.8903 9.6917C93.7104 9.36594 93.4794 9.08881 93.1975 8.86029C92.9155 8.63178 92.5897 8.45674 92.2202 8.33519C91.8555 8.21364 91.4593 8.15287 91.0314 8.15287C90.2584 8.15287 89.585 8.34492 89.0112 8.72902C88.4375 9.10826 87.9926 9.66253 87.6766 10.3918C87.3606 11.1163 87.2026 11.9963 87.2026 13.0319C87.2026 14.0967 87.3606 14.9913 87.6766 15.7158C87.9975 16.4402 88.4448 16.9872 89.0185 17.3567C89.5923 17.7262 90.2559 17.911 91.0095 17.911C91.4325 17.911 91.8239 17.8551 92.1837 17.7432C92.5484 17.6314 92.8717 17.4685 93.1537 17.2546C93.4357 17.0358 93.6691 16.7708 93.8538 16.4597C94.0434 16.1485 94.1747 15.7936 94.2476 15.3949L97.442 15.4095C97.3594 16.095 97.1527 16.7562 96.8221 17.3932C96.4963 18.0252 96.0563 18.5917 95.5021 19.0924C94.9526 19.5884 94.2963 19.9822 93.5329 20.2739C92.7745 20.5608 91.9163 20.7042 90.9585 20.7042C89.6263 20.7042 88.4351 20.4028 87.3849 19.7999C86.3396 19.197 85.513 18.3242 84.9053 17.1817C84.3024 16.0391 84.0009 14.6558 84.0009 13.0319C84.0009 11.4031 84.3072 10.0175 84.9198 8.87488C85.5325 7.7323 86.3639 6.862 87.4141 6.26397C88.4643 5.66107 89.6457 5.35963 90.9585 5.35963C91.8239 5.35963 92.6262 5.48118 93.3652 5.72428C94.1091 5.96738 94.7679 6.32231 95.3416 6.78907C95.9153 7.25096 96.3821 7.81739 96.7419 8.48835C97.1065 9.15931 97.3399 9.92751 97.442 10.793ZM99.7065 20.5V5.56383H105.599C106.727 5.56383 107.69 5.76561 108.487 6.16916C109.29 6.56784 109.9 7.13427 110.318 7.86844C110.741 8.59774 110.952 9.45589 110.952 10.4429C110.952 11.4347 110.738 12.288 110.311 13.0027C109.883 13.7126 109.263 14.2571 108.451 14.6364C107.644 15.0156 106.667 15.2052 105.519 15.2052H101.574V12.6673H105.009C105.611 12.6673 106.112 12.5846 106.511 12.4193C106.91 12.254 107.206 12.006 107.401 11.6754C107.6 11.3448 107.7 10.9339 107.7 10.4429C107.7 9.94696 107.6 9.52882 107.401 9.18848C107.206 8.84814 106.907 8.59045 106.504 8.41542C106.105 8.23552 105.602 8.14557 104.994 8.14557H102.864V20.5H99.7065ZM107.773 13.7029L111.485 20.5H107.999L104.367 13.7029H107.773ZM122.41 5.56383H125.568V15.2636C125.568 16.3527 125.308 17.3056 124.787 18.1225C124.272 18.9393 123.55 19.5762 122.621 20.0332C121.693 20.4854 120.611 20.7115 119.376 20.7115C118.136 20.7115 117.052 20.4854 116.123 20.0332C115.195 19.5762 114.472 18.9393 113.957 18.1225C113.442 17.3056 113.184 16.3527 113.184 15.2636V5.56383H116.342V14.9937C116.342 15.5626 116.466 16.0683 116.714 16.5107C116.967 16.9531 117.322 17.3008 117.779 17.5536C118.236 17.8064 118.768 17.9328 119.376 17.9328C119.988 17.9328 120.521 17.8064 120.973 17.5536C121.43 17.3008 121.783 16.9531 122.031 16.5107C122.283 16.0683 122.41 15.5626 122.41 14.9937V5.56383ZM128.166 5.56383H132.06L136.174 15.5991H136.349L140.462 5.56383H144.356V20.5H141.293V10.7784H141.169L137.304 20.4271H135.218L131.353 10.7419H131.229V20.5H128.166V5.56383ZM150.4 7.18289H150.926V7.97783H150.4V7.18289ZM146.338 12.3318L149.409 5.89202H151.917L154.995 12.3318H152.647L150.597 7.68611H150.736L148.701 12.3318H146.338ZM155.71 17.8745V15.3876L161.945 5.56383H164.09V9.00615H162.821L158.89 15.2271V15.3438H167.751V17.8745H155.71ZM162.879 20.5V17.116L162.937 16.0148V5.56383H165.898V20.5H162.879Z"
        fill="black" />
    <path
        d="M49.4605 29.3677C49.4243 29.0459 49.2747 28.7967 49.0119 28.6199C48.749 28.4409 48.4182 28.3514 48.0194 28.3514C47.7339 28.3514 47.4869 28.3967 47.2785 28.4874C47.07 28.5757 46.908 28.6981 46.7924 28.8545C46.6791 29.0085 46.6225 29.1841 46.6225 29.3813C46.6225 29.5467 46.661 29.6894 46.738 29.8095C46.8173 29.9296 46.9204 30.0305 47.0473 30.112C47.1765 30.1913 47.3147 30.2582 47.462 30.3126C47.6093 30.3647 47.7509 30.4077 47.8869 30.4417L48.5666 30.6185C48.7887 30.6729 49.0164 30.7465 49.2498 30.8394C49.4832 30.9323 49.6996 31.0547 49.899 31.2065C50.0984 31.3583 50.2593 31.5464 50.3816 31.7707C50.5063 31.995 50.5686 32.2635 50.5686 32.5762C50.5686 32.9705 50.4666 33.3206 50.2627 33.6265C50.061 33.9324 49.7676 34.1737 49.3824 34.3504C48.9994 34.5272 48.536 34.6156 47.9922 34.6156C47.4711 34.6156 47.0201 34.5329 46.6395 34.3674C46.2588 34.202 45.9608 33.9675 45.7456 33.6639C45.5303 33.358 45.4113 32.9954 45.3887 32.5762H46.4423C46.4627 32.8277 46.5443 33.0373 46.687 33.205C46.8321 33.3704 47.0167 33.4939 47.2411 33.5755C47.4677 33.6548 47.7158 33.6945 47.9854 33.6945C48.2823 33.6945 48.5462 33.648 48.7774 33.5551C49.0107 33.4599 49.1943 33.3285 49.328 33.1608C49.4617 32.9909 49.5285 32.7926 49.5285 32.566C49.5285 32.3598 49.4696 32.191 49.3518 32.0596C49.2362 31.9282 49.0787 31.8194 48.8793 31.7333C48.6822 31.6472 48.459 31.5713 48.2097 31.5056L47.3872 31.2813C46.8298 31.1294 46.3879 30.9062 46.0616 30.6117C45.7376 30.3171 45.5756 29.9274 45.5756 29.4425C45.5756 29.0414 45.6844 28.6913 45.9019 28.3922C46.1194 28.0931 46.414 27.8608 46.7856 27.6954C47.1572 27.5278 47.5764 27.4439 48.0432 27.4439C48.5145 27.4439 48.9303 27.5266 49.2906 27.692C49.6531 27.8574 49.9386 28.0852 50.1471 28.3752C50.3556 28.663 50.4643 28.9938 50.4734 29.3677H49.4605ZM51.8236 34.5V27.5391H56.1878V28.4432H52.8739V30.5641H55.9601V31.4648H52.8739V33.5959H56.2286V34.5H51.8236ZM57.5907 34.5V27.5391H60.0719C60.6111 27.5391 61.0587 27.632 61.4144 27.8178C61.7724 28.0036 62.0398 28.2608 62.2166 28.5893C62.3933 28.9156 62.4817 29.2929 62.4817 29.7212C62.4817 30.1472 62.3922 30.5222 62.2132 30.8462C62.0364 31.168 61.769 31.4183 61.411 31.5974C61.0553 31.7764 60.6077 31.8659 60.0685 31.8659H58.1889V30.9618H59.9733C60.3132 30.9618 60.5896 30.913 60.8026 30.8156C61.0179 30.7182 61.1754 30.5766 61.2751 30.3907C61.3748 30.2049 61.4246 29.9817 61.4246 29.7212C61.4246 29.4583 61.3736 29.2306 61.2717 29.038C61.172 28.8454 61.0145 28.6981 60.7992 28.5961C60.5862 28.4919 60.3064 28.4398 59.9597 28.4398H58.6409V34.5H57.5907ZM61.0269 31.3594L62.7468 34.5H61.5504L59.8645 31.3594H61.0269ZM64.1998 27.5391L66.1372 33.2084H66.2153L68.1527 27.5391H69.2879L66.783 34.5H65.5696L63.0646 27.5391H64.1998ZM71.3434 27.5391V34.5H70.2932V27.5391H71.3434ZM78.6544 29.8027H77.594C77.5532 29.5761 77.4773 29.3767 77.3662 29.2045C77.2552 29.0323 77.1193 28.8862 76.9584 28.7661C76.7975 28.646 76.6174 28.5553 76.4179 28.4942C76.2208 28.433 76.0112 28.4024 75.7892 28.4024C75.3881 28.4024 75.0289 28.5032 74.7117 28.7049C74.3967 28.9066 74.1475 29.2023 73.964 29.592C73.7827 29.9817 73.692 30.4576 73.692 31.0195C73.692 31.586 73.7827 32.0641 73.964 32.4539C74.1475 32.8436 74.3979 33.1382 74.7151 33.3376C75.0323 33.537 75.3892 33.6367 75.7858 33.6367C76.0056 33.6367 76.214 33.6072 76.4112 33.5483C76.6106 33.4871 76.7907 33.3976 76.9516 33.2798C77.1125 33.162 77.2484 33.0181 77.3594 32.8481C77.4727 32.6759 77.5509 32.4788 77.594 32.2567L78.6544 32.2601C78.5978 32.6023 78.4879 32.9173 78.3247 33.205C78.1638 33.4905 77.9565 33.7375 77.7027 33.946C77.4512 34.1522 77.1634 34.3119 76.8394 34.4252C76.5154 34.5385 76.1619 34.5952 75.779 34.5952C75.1762 34.5952 74.6392 34.4524 74.1679 34.1669C73.6966 33.8791 73.325 33.4679 73.0531 32.9331C72.7834 32.3984 72.6486 31.7605 72.6486 31.0195C72.6486 30.2763 72.7845 29.6385 73.0565 29.106C73.3284 28.5712 73.7 28.1611 74.1713 27.8756C74.6426 27.5878 75.1785 27.4439 75.779 27.4439C76.1483 27.4439 76.4927 27.4972 76.8122 27.6037C77.134 27.7079 77.4229 27.862 77.6789 28.0659C77.935 28.2676 78.1468 28.5146 78.3145 28.8069C78.4822 29.0969 78.5955 29.4289 78.6544 29.8027ZM79.9112 34.5V27.5391H84.2753V28.4432H80.9614V30.5641H84.0476V31.4648H80.9614V33.5959H84.3161V34.5H79.9112ZM89.4748 29.3677C89.4385 29.0459 89.289 28.7967 89.0261 28.6199C88.7633 28.4409 88.4324 28.3514 88.0336 28.3514C87.7481 28.3514 87.5011 28.3967 87.2927 28.4874C87.0842 28.5757 86.9222 28.6981 86.8066 28.8545C86.6933 29.0085 86.6367 29.1841 86.6367 29.3813C86.6367 29.5467 86.6752 29.6894 86.7523 29.8095C86.8316 29.9296 86.9347 30.0305 87.0616 30.112C87.1907 30.1913 87.3289 30.2582 87.4762 30.3126C87.6235 30.3647 87.7651 30.4077 87.9011 30.4417L88.5809 30.6185C88.8029 30.6729 89.0306 30.7465 89.264 30.8394C89.4974 30.9323 89.7138 31.0547 89.9132 31.2065C90.1126 31.3583 90.2735 31.5464 90.3959 31.7707C90.5205 31.995 90.5828 32.2635 90.5828 32.5762C90.5828 32.9705 90.4808 33.3206 90.2769 33.6265C90.0752 33.9324 89.7818 34.1737 89.3966 34.3504C89.0137 34.5272 88.5503 34.6156 88.0064 34.6156C87.4853 34.6156 87.0344 34.5329 86.6537 34.3674C86.273 34.202 85.975 33.9675 85.7598 33.6639C85.5445 33.358 85.4256 32.9954 85.4029 32.5762H86.4566C86.477 32.8277 86.5585 33.0373 86.7013 33.205C86.8463 33.3704 87.031 33.4939 87.2553 33.5755C87.4819 33.6548 87.73 33.6945 87.9997 33.6945C88.2965 33.6945 88.5605 33.648 88.7916 33.5551C89.025 33.4599 89.2085 33.3285 89.3422 33.1608C89.4759 32.9909 89.5427 32.7926 89.5427 32.566C89.5427 32.3598 89.4838 32.191 89.366 32.0596C89.2504 31.9282 89.093 31.8194 88.8936 31.7333C88.6964 31.6472 88.4732 31.5713 88.224 31.5056L87.4014 31.2813C86.844 31.1294 86.4022 30.9062 86.0759 30.6117C85.7519 30.3171 85.5898 29.9274 85.5898 29.4425C85.5898 29.0414 85.6986 28.6913 85.9161 28.3922C86.1337 28.0931 86.4282 27.8608 86.7998 27.6954C87.1715 27.5278 87.5907 27.4439 88.0574 27.4439C88.5287 27.4439 88.9445 27.5266 89.3048 27.692C89.6674 27.8574 89.9529 28.0852 90.1613 28.3752C90.3698 28.663 90.4786 28.9938 90.4876 29.3677H89.4748Z"
        fill="black" />
</svg>
    