<svg width="126" height="82" viewBox="0 0 126 82" fill="none" xmlns="http://www.w3.org/2000/svg">
<rect opacity="0.0344828" x="11.6855" y="97.073" width="78.5008" height="94.9435" transform="rotate(-84 11.6855 97.073)" stroke="#1D2353" stroke-width="2"/>
<rect opacity="0.0689655" x="9.97274" y="94.3408" width="78.5008" height="94.9435" transform="rotate(-81 9.97274 94.3408)" stroke="#1D2353" stroke-width="2"/>
<rect opacity="0.103448" x="8.40481" y="91.5225" width="78.5008" height="94.9435" transform="rotate(-78 8.40481 91.5225)" stroke="#1D2353" stroke-width="2"/>
<rect opacity="0.137931" x="6.98695" y="88.6264" width="78.5008" height="94.9435" transform="rotate(-75 6.98695 88.6264)" stroke="#1D2353" stroke-width="2"/>
<rect opacity="0.172414" x="5.72248" y="85.6597" width="78.5008" height="94.9435" transform="rotate(-72 5.72248 85.6597)" stroke="#1D2353" stroke-width="2"/>
<rect opacity="0.206897" x="4.61519" y="82.6311" width="78.5008" height="94.9435" transform="rotate(-69 4.61519 82.6311)" stroke="#1D2353" stroke-width="2"/>
<rect opacity="0.241379" x="3.66794" y="79.5482" width="78.5008" height="94.9435" transform="rotate(-66 3.66794 79.5482)" stroke="#1D2353" stroke-width="2"/>
<rect opacity="0.275862" x="2.88308" y="76.4206" width="78.5008" height="94.9435" transform="rotate(-63 2.88308 76.4206)" stroke="#1D2353" stroke-width="2"/>
<rect opacity="0.310345" x="2.263" y="73.2557" width="78.5008" height="94.9435" transform="rotate(-60 2.263 73.2557)" stroke="#1D2353" stroke-width="2"/>
<rect opacity="0.344828" x="1.80958" y="70.0631" width="78.5008" height="94.9435" transform="rotate(-57 1.80958 70.0631)" stroke="#1D2353" stroke-width="2"/>
<rect opacity="0.37931" x="1.52376" y="66.8508" width="78.5008" height="94.9435" transform="rotate(-54 1.52376 66.8508)" stroke="#1D2353" stroke-width="2"/>
<rect opacity="0.413793" x="1.40647" y="63.6281" width="78.5008" height="94.9435" transform="rotate(-51 1.40647 63.6281)" stroke="#1D2353" stroke-width="2"/>
<rect opacity="0.448276" x="1.45817" y="60.4038" width="78.5008" height="94.9435" transform="rotate(-48 1.45817 60.4038)" stroke="#1D2353" stroke-width="2"/>
<rect opacity="0.482759" x="1.67837" y="57.1864" width="78.5008" height="94.9435" transform="rotate(-45 1.67837 57.1864)" stroke="#1D2353" stroke-width="2"/>
<rect opacity="0.517241" x="2.06657" y="53.9851" width="78.5008" height="94.9435" transform="rotate(-42 2.06657 53.9851)" stroke="#1D2353" stroke-width="2"/>
<rect opacity="0.551724" x="2.6218" y="50.8086" width="78.5008" height="94.9435" transform="rotate(-39 2.6218 50.8086)" stroke="#1D2353" stroke-width="2"/>
<rect opacity="0.586207" x="3.3426" y="47.6652" width="78.5008" height="94.9435" transform="rotate(-36 3.3426 47.6652)" stroke="#1D2353" stroke-width="2"/>
<rect opacity="0.62069" x="4.22706" y="44.564" width="78.5008" height="94.9435" transform="rotate(-33 4.22706 44.564)" stroke="#1D2353" stroke-width="2"/>
<rect opacity="0.655172" x="5.27228" y="41.5135" width="78.5008" height="94.9435" transform="rotate(-30 5.27228 41.5135)" stroke="#1D2353" stroke-width="2"/>
<rect opacity="0.689655" x="6.47586" y="38.5215" width="78.5008" height="94.9435" transform="rotate(-27 6.47586 38.5215)" stroke="#1D2353" stroke-width="2"/>
<rect opacity="0.724138" x="7.83444" y="35.5967" width="78.5008" height="94.9435" transform="rotate(-24 7.83444 35.5967)" stroke="#1D2353" stroke-width="2"/>
<rect opacity="0.758621" x="9.34419" y="32.7473" width="78.5008" height="94.9435" transform="rotate(-21 9.34419 32.7473)" stroke="#1D2353" stroke-width="2"/>
<rect opacity="0.793103" x="11.0013" y="29.9807" width="78.5008" height="94.9435" transform="rotate(-18 11.0013 29.9807)" stroke="#1D2353" stroke-width="2"/>
<rect opacity="0.827586" x="12.8004" y="27.3046" width="78.5008" height="94.9435" transform="rotate(-15 12.8004 27.3046)" stroke="#1D2353" stroke-width="2"/>
<rect opacity="0.862069" x="14.7373" y="24.7263" width="78.5008" height="94.9435" transform="rotate(-12 14.7373 24.7263)" stroke="#1D2353" stroke-width="2"/>
<rect opacity="0.896552" x="16.8067" y="22.2526" width="78.5008" height="94.9435" transform="rotate(-9 16.8067 22.2526)" stroke="#1D2353" stroke-width="2"/>
<rect opacity="0.931035" x="19.0024" y="19.891" width="78.5008" height="94.9435" transform="rotate(-6 19.0024 19.891)" stroke="#1D2353" stroke-width="2"/>
<rect opacity="0.965517" x="21.319" y="17.6472" width="78.5008" height="94.9435" transform="rotate(-3 21.319 17.6472)" stroke="#1D2353" stroke-width="2"/>
<rect x="23.7495" y="15.528" width="78.5008" height="94.9435" stroke="#1D2353" stroke-width="2"/>
</svg>
