<svg xmlns="http://www.w3.org/2000/svg" width="24" height="24" viewBox="0 0 24 24" fill="none">
    <path d="M22 22H2" stroke="#5663D9" stroke-width="1.5" stroke-linecap="round" />
    <path d="M20 22V11" stroke="#5663D9" stroke-width="1.5" stroke-linecap="round" />
    <path d="M4 22V11" stroke="#5663D9" stroke-width="1.5" stroke-linecap="round" />
    <path
        d="M20.1056 4.21114L20.803 3.93525C20.795 3.91504 20.7861 3.89518 20.7764 3.87573L20.1056 4.21114ZM3.89452 4.21114L3.2237 3.87573C3.21398 3.89518 3.2051 3.91504 3.19711 3.93525L3.89452 4.21114ZM18.8154 2.2987L18.4211 2.93669V2.93669L18.8154 2.2987ZM5.1847 2.2987L5.579 2.93669V2.93669L5.1847 2.2987ZM18.75 9C18.75 8.58579 18.4142 8.25 18 8.25C17.5858 8.25 17.25 8.58579 17.25 9H18.75ZM14.75 9C14.75 8.58579 14.4142 8.25 14 8.25C13.5858 8.25 13.25 8.58579 13.25 9H14.75ZM10.75 9C10.75 8.58579 10.4142 8.25 10 8.25C9.58579 8.25 9.25 8.58579 9.25 9H10.75ZM6.75 9C6.75 8.58579 6.41422 8.25 6 8.25C5.58579 8.25 5.25 8.58579 5.25 9H6.75ZM21.5092 7.75929L20.8118 8.03518L21.5092 7.75929ZM21.5713 10.2375L22.1602 10.7019L21.5713 10.2375ZM7.47223 2.75H16.5279V1.25H7.47223V2.75ZM22.2066 7.4834L20.803 3.93525L19.4082 4.48704L20.8118 8.03518L22.2066 7.4834ZM3.18832 8.03518L4.59193 4.48704L3.19711 3.93525L1.79349 7.4834L3.18832 8.03518ZM16.5279 2.75C17.1447 2.75 17.5506 2.75092 17.8643 2.78336C18.1607 2.81401 18.3096 2.86776 18.4211 2.93669L19.2097 1.66071C18.8379 1.43094 18.4444 1.33534 18.0186 1.29131C17.6101 1.24908 17.1139 1.25 16.5279 1.25V2.75ZM20.7764 3.87573C20.5143 3.35159 20.2933 2.90738 20.0728 2.56087C19.843 2.1997 19.5815 1.89048 19.2097 1.66071L18.4211 2.93669C18.5326 3.00562 18.6473 3.1147 18.8072 3.36612C18.9765 3.6322 19.1589 3.99487 19.4348 4.54656L20.7764 3.87573ZM7.47223 1.25C6.88622 1.25 6.39004 1.24908 5.98151 1.29131C5.5557 1.33534 5.16217 1.43094 4.7904 1.66071L5.579 2.93669C5.69053 2.86776 5.83936 2.81401 6.13578 2.78336C6.44949 2.75092 6.85542 2.75 7.47223 2.75V1.25ZM4.56534 4.54656C4.84118 3.99487 5.02355 3.6322 5.19286 3.36612C5.35283 3.1147 5.46746 3.00562 5.579 2.93669L4.7904 1.66071C4.41863 1.89048 4.15713 2.19971 3.92732 2.56087C3.70684 2.90738 3.48577 3.35159 3.2237 3.87573L4.56534 4.54656ZM20.9824 9.77304C20.7523 10.0649 20.398 10.25 20 10.25V11.75C20.8767 11.75 21.6579 11.3389 22.1602 10.7019L20.9824 9.77304ZM20 10.25C19.3096 10.25 18.75 9.69036 18.75 9H17.25C17.25 10.5188 18.4812 11.75 20 11.75V10.25ZM17.25 9C17.25 9.69036 16.6904 10.25 16 10.25V11.75C17.5188 11.75 18.75 10.5188 18.75 9H17.25ZM16 10.25C15.3096 10.25 14.75 9.69036 14.75 9H13.25C13.25 10.5188 14.4812 11.75 16 11.75V10.25ZM9.25 9C9.25 9.69036 8.69036 10.25 8 10.25V11.75C9.51879 11.75 10.75 10.5188 10.75 9H9.25ZM8 10.25C7.30965 10.25 6.75 9.69036 6.75 9H5.25C5.25 10.5188 6.48122 11.75 8 11.75V10.25ZM13.25 9C13.25 9.69036 12.6904 10.25 12 10.25V11.75C13.5188 11.75 14.75 10.5188 14.75 9H13.25ZM12 10.25C11.3096 10.25 10.75 9.69036 10.75 9H9.25C9.25 10.5188 10.4812 11.75 12 11.75V10.25ZM5.25 9C5.25 9.69036 4.69036 10.25 4 10.25V11.75C5.51879 11.75 6.75 10.5188 6.75 9H5.25ZM4 10.25C3.60205 10.25 3.2478 10.0649 3.01768 9.77307L1.83984 10.7019C2.34216 11.3389 3.12328 11.75 4 11.75V10.25ZM1.79349 7.4834C1.62648 7.90559 1.4414 8.43229 1.38727 8.97127C1.33191 9.52257 1.40788 10.1541 1.83984 10.7019L3.01768 9.77307C2.90375 9.6286 2.84865 9.43095 2.87976 9.12115C2.91211 8.79903 3.03104 8.43275 3.18832 8.03518L1.79349 7.4834ZM20.8118 8.03518C20.9691 8.43275 21.088 8.79903 21.1203 9.12114C21.1514 9.43094 21.0963 9.62858 20.9824 9.77304L22.1602 10.7019C22.5922 10.1541 22.6682 9.52258 22.6128 8.97128C22.5587 8.43229 22.3736 7.90559 22.2066 7.4834L20.8118 8.03518Z"
        fill="#5663D9" />
    <path
        d="M9.5 21.5V18.5C9.5 17.5654 9.5 17.0981 9.70096 16.75C9.83261 16.522 10.022 16.3326 10.25 16.201C10.5981 16 11.0654 16 12 16C12.9346 16 13.4019 16 13.75 16.201C13.978 16.3326 14.1674 16.522 14.299 16.75C14.5 17.0981 14.5 17.5654 14.5 18.5V21.5"
        stroke="#5663D9" stroke-width="1.5" stroke-linecap="round" />
</svg>