<svg xmlns="http://www.w3.org/2000/svg" width="24" height="24" viewBox="0 0 24 24" fill="none">
    <circle cx="12" cy="17" r="1" stroke="#5663D9" stroke-width="1.5" />
    <circle cx="8" cy="9" r="1" stroke="#5663D9" stroke-width="1.5" />
    <path
        d="M11.25 16C11.25 16.4142 11.5858 16.75 12 16.75C12.4142 16.75 12.75 16.4142 12.75 16H11.25ZM12 6L12.5303 5.46967C12.2374 5.17678 11.7626 5.17678 11.4697 5.46967L12 6ZM12.4697 7.53033C12.7626 7.82322 13.2374 7.82322 13.5303 7.53033C13.8232 7.23744 13.8232 6.76256 13.5303 6.46967L12.4697 7.53033ZM10.4697 6.46967C10.1768 6.76256 10.1768 7.23744 10.4697 7.53033C10.7626 7.82322 11.2374 7.82322 11.5303 7.53033L10.4697 6.46967ZM11.4697 6.53033L12.4697 7.53033L13.5303 6.46967L12.5303 5.46967L11.4697 6.53033ZM11.4697 5.46967L10.4697 6.46967L11.5303 7.53033L12.5303 6.53033L11.4697 5.46967ZM12.75 16V14.125H11.25V16H12.75ZM12.75 14.125V6H11.25V14.125H12.75Z"
        fill="#5663D9" />
    <path
        d="M10.8069 13.3772L11.0306 12.6613L10.8069 13.3772ZM9.40345 12.9386L9.62716 12.2227L9.40345 12.9386ZM8.75 10C8.75 9.58579 8.41421 9.25 8 9.25C7.58579 9.25 7.25 9.58579 7.25 10H8.75ZM11.25 15C11.25 15.4142 11.5858 15.75 12 15.75C12.4142 15.75 12.75 15.4142 12.75 15H11.25ZM11.0306 12.6613L9.62716 12.2227L9.17974 13.6544L10.5832 14.093L11.0306 12.6613ZM8.75 11.0296V10H7.25V11.0296H8.75ZM9.62716 12.2227C9.10531 12.0596 8.75 11.5763 8.75 11.0296H7.25C7.25 12.2324 8.03169 13.2957 9.17974 13.6544L9.62716 12.2227ZM10.5832 14.093C10.9799 14.217 11.25 14.5844 11.25 15H12.75C12.75 13.9283 12.0535 12.981 11.0306 12.6613L10.5832 14.093Z"
        fill="#5663D9" />
    <path
        d="M13.1931 14.3772L12.9694 13.6613H12.9694L13.1931 14.3772ZM14.5966 13.9386L14.3728 13.2227L14.5966 13.9386ZM16.75 11C16.75 10.5858 16.4142 10.25 16 10.25C15.5858 10.25 15.25 10.5858 15.25 11H16.75ZM11.25 16C11.25 16.4142 11.5858 16.75 12 16.75C12.4142 16.75 12.75 16.4142 12.75 16H11.25ZM13.4168 15.093L14.8203 14.6544L14.3728 13.2227L12.9694 13.6613L13.4168 15.093ZM16.75 12.0296V11H15.25V12.0296H16.75ZM14.8203 14.6544C15.9683 14.2957 16.75 13.2324 16.75 12.0296H15.25C15.25 12.5763 14.8947 13.0596 14.3728 13.2227L14.8203 14.6544ZM12.9694 13.6613C11.9465 13.981 11.25 14.9283 11.25 16H12.75C12.75 15.5844 13.0201 15.217 13.4168 15.093L12.9694 13.6613Z"
        fill="#5663D9" />
    <path
        d="M15 10C15 9.5286 15 9.29289 15.1464 9.14645C15.2929 9 15.5286 9 16 9C16.4714 9 16.7071 9 16.8536 9.14645C17 9.29289 17 9.5286 17 10C17 10.4714 17 10.7071 16.8536 10.8536C16.7071 11 16.4714 11 16 11C15.5286 11 15.2929 11 15.1464 10.8536C15 10.7071 15 10.4714 15 10Z"
        stroke="#5663D9" stroke-width="1.5" />
    <circle cx="12" cy="12" r="10" stroke="#5663D9" stroke-width="1.5" />
</svg>