<svg width="189" height="105" viewBox="0 0 189 105" fill="none" xmlns="http://www.w3.org/2000/svg">
<path opacity="0.0344828" d="M45.0678 148.806C44.5085 148.01 44.262 146.925 44.4236 145.482C44.5861 144.031 45.1567 142.282 46.1528 140.26C48.1447 136.215 51.7427 131.268 56.7027 125.736C66.6115 114.686 81.8042 101.474 99.9345 88.7414C118.065 76.0083 135.648 66.201 149.406 60.6303C156.292 57.8419 162.167 56.1366 166.647 55.6354C168.888 55.3847 170.727 55.4416 172.147 55.7813C173.559 56.1191 174.496 56.719 175.055 57.5154C175.614 58.3118 175.861 59.3963 175.699 60.8394C175.537 62.2908 174.966 64.0398 173.97 66.0623C171.978 70.1064 168.38 75.0543 163.42 80.5855C153.511 91.6357 138.319 104.847 120.188 117.58C102.058 130.314 84.4745 140.121 70.7173 145.692C63.8311 148.48 57.9558 150.185 53.4757 150.686C51.2352 150.937 49.3963 150.88 47.9759 150.541C46.5637 150.203 45.6272 149.603 45.0678 148.806Z" stroke="#1D2353" stroke-width="2"/>
<path opacity="0.0689655" d="M40.7168 142.803C40.229 141.961 40.078 140.859 40.3647 139.435C40.6531 138.004 41.3739 136.311 42.5426 134.383C44.8794 130.528 48.8949 125.913 54.3181 120.835C65.1523 110.69 81.4387 98.8528 100.61 87.7483C119.781 76.6439 138.152 68.4064 152.343 64.056C159.446 61.8783 165.447 60.6916 169.954 60.5827C172.208 60.5283 174.035 60.7452 175.42 61.2074C176.798 61.667 177.678 62.3463 178.166 63.1884C178.654 64.0305 178.805 65.1324 178.518 66.5559C178.23 67.9876 177.509 69.6802 176.34 71.6082C174.003 75.4633 169.988 80.0787 164.565 85.1566C153.731 95.3012 137.444 107.139 118.273 118.243C99.102 129.347 80.7305 137.585 66.5402 141.935C59.4371 144.113 53.4356 145.3 48.9289 145.409C46.675 145.463 44.8481 145.246 43.4627 144.784C42.0853 144.324 41.2046 143.645 40.7168 142.803Z" stroke="#1D2353" stroke-width="2"/>
<path opacity="0.103448" d="M36.8884 136.496C36.4759 135.615 36.4214 134.504 36.8312 133.111C37.2433 131.71 38.1088 130.086 39.4411 128.268C42.105 124.631 46.5075 120.383 52.3526 115.797C64.0297 106.635 81.2858 96.2626 101.352 86.8713C121.418 77.4799 140.437 70.875 154.953 67.7779C162.219 66.2276 168.301 65.5685 172.8 65.8528C175.05 65.995 176.851 66.3703 178.191 66.9515C179.523 67.5294 180.341 68.2828 180.753 69.1643C181.166 70.0457 181.22 71.1566 180.811 72.5496C180.399 73.9507 179.533 75.5741 178.201 77.3929C175.537 81.0297 171.134 85.2776 165.289 89.8635C153.612 99.0252 136.356 109.398 116.29 118.789C96.2242 128.181 77.2047 134.786 62.6891 137.883C55.4233 139.433 49.3412 140.092 44.8421 139.808C42.5921 139.666 40.791 139.29 39.4512 138.709C38.1191 138.131 37.301 137.378 36.8884 136.496Z" stroke="#1D2353" stroke-width="2"/>
<path opacity="0.137931" d="M33.6076 129.934C33.2735 129.02 33.3161 127.908 33.8457 126.556C34.3783 125.196 35.3821 123.655 36.8678 121.959C39.8385 118.568 44.5945 114.72 50.817 110.661C63.2482 102.552 81.3427 93.7225 102.151 86.1158C122.959 78.5091 142.482 73.5869 157.212 71.7667C164.585 70.8556 170.702 70.729 175.159 71.4044C177.388 71.7422 179.149 72.2731 180.433 72.9688C181.71 73.6606 182.459 74.4824 182.794 75.3965C183.128 76.3105 183.085 77.4219 182.556 78.774C182.023 80.1338 181.019 81.6756 179.533 83.3713C176.563 86.7621 171.807 90.6101 165.584 94.6692C153.153 102.778 135.059 111.608 114.25 119.214C93.4423 126.821 73.9196 131.743 59.1893 133.563C51.816 134.475 45.6996 134.601 41.2424 133.926C39.0134 133.588 37.2519 133.057 35.9678 132.361C34.6911 131.67 33.9418 130.848 33.6076 129.934Z" stroke="#1D2353" stroke-width="2"/>
<path opacity="0.172414" d="M30.8945 123.163C30.6413 122.224 30.7806 121.12 31.426 119.819C32.0751 118.511 33.2094 117.063 34.8373 115.503C38.0922 112.384 43.1655 108.965 49.7181 105.464C62.8088 98.4691 81.6039 91.2503 102.996 85.4861C124.388 79.7219 144.265 76.52 159.098 75.9905C166.523 75.7255 172.627 76.1325 177.008 77.1938C179.199 77.7246 180.908 78.4069 182.126 79.212C183.338 80.0123 184.013 80.8964 184.266 81.8361C184.519 82.7758 184.38 83.8792 183.735 85.18C183.085 86.4882 181.951 87.9367 180.323 89.4965C177.068 92.6154 171.995 96.0343 165.442 99.5355C152.352 106.53 133.557 113.749 112.165 119.513C90.7728 125.278 70.8953 128.479 56.0625 129.009C48.6379 129.274 42.5336 128.867 38.1523 127.806C35.9612 127.275 34.2527 126.592 33.0341 125.787C31.8225 124.987 31.1477 124.103 30.8945 123.163Z" stroke="#1D2353" stroke-width="2"/>
<path opacity="0.206897" d="M28.7649 116.236C28.5946 115.278 28.8295 114.19 29.5858 112.951C30.3465 111.704 31.6027 110.36 33.3603 108.948C36.8747 106.125 42.2267 103.161 49.0595 100.244C62.71 94.417 82.0627 88.8639 103.876 84.986C125.688 81.1081 145.769 79.6508 160.592 80.4162C168.011 80.7993 174.057 81.7367 178.329 83.1758C180.466 83.8955 182.108 84.7242 183.252 85.6324C184.389 86.5353 184.984 87.4748 185.155 88.433C185.325 89.3912 185.09 90.4783 184.334 91.7178C183.573 92.9646 182.317 94.3086 180.559 95.7206C177.045 98.544 171.693 101.508 164.86 104.425C151.21 110.252 131.857 115.805 110.044 119.683C88.2311 123.561 68.1502 125.018 53.3276 124.253C45.9082 123.87 39.8626 122.932 35.5905 121.493C33.4539 120.773 31.8114 119.945 30.6677 119.036C29.5304 118.133 28.9352 117.194 28.7649 116.236Z" stroke="#1D2353" stroke-width="2"/>
<path opacity="0.241379" d="M27.2299 109.202C27.1437 108.233 27.4725 107.17 28.334 106.002C29.2004 104.826 30.569 103.596 32.443 102.343C36.19 99.8367 41.78 97.3507 48.841 95.0405C62.9474 90.4251 82.7105 86.5798 104.778 84.6178C126.846 82.6558 146.978 82.9542 161.677 85.0085C169.035 86.0368 174.976 87.4976 179.106 89.3036C181.172 90.2068 182.736 91.1755 183.796 92.1799C184.85 93.1785 185.362 94.1663 185.448 95.1357C185.534 96.105 185.205 97.1675 184.344 98.3364C183.477 99.5121 182.109 100.742 180.235 101.995C176.488 104.501 170.898 106.987 163.837 109.298C149.73 113.913 129.967 117.758 107.899 119.72C85.8314 121.682 65.6999 121.384 51.0004 119.329C43.6426 118.301 37.7018 116.84 33.5713 115.034C31.5056 114.131 29.9416 113.163 28.8813 112.158C27.8271 111.16 27.3161 110.172 27.2299 109.202Z" stroke="#1D2353" stroke-width="2"/>
<path opacity="0.275862" d="M26.2981 102.116C26.2967 101.142 26.7168 100.113 27.6769 99.0233C28.6425 97.9276 30.1131 96.8221 32.0891 95.7368C36.0404 93.5666 41.8257 91.5773 49.0612 89.8912C63.5162 86.5229 83.5393 84.4147 105.694 84.3835C127.849 84.3523 147.878 86.4042 162.342 89.7318C169.583 91.3974 175.373 93.3705 179.331 95.5295C181.31 96.6093 182.784 97.7107 183.752 98.8036C184.715 99.8903 185.138 100.919 185.14 101.892C185.141 102.865 184.721 103.895 183.761 104.984C182.795 106.08 181.325 107.186 179.349 108.271C175.397 110.441 169.612 112.431 162.377 114.117C147.922 117.485 127.899 119.593 105.744 119.624C83.5889 119.655 63.56 117.604 49.0955 114.276C41.8553 112.61 36.0644 110.637 32.1071 108.478C30.1279 107.398 28.6543 106.297 27.6856 105.204C26.7224 104.117 26.2994 103.089 26.2981 102.116Z" stroke="#1D2353" stroke-width="2"/>
<path opacity="0.310345" d="M25.9701 95.0279C26.0536 94.0583 26.5618 93.069 27.6132 92.0675C28.6706 91.0601 30.232 90.087 32.2951 89.178C36.4205 87.3604 42.3571 85.8829 49.7121 84.8339C64.4056 82.7383 84.5362 82.3832 106.61 84.283C128.683 86.1829 148.457 89.9726 162.576 94.5482C169.644 96.8385 175.24 99.3088 178.995 101.805C180.872 103.053 182.244 104.278 183.114 105.451C183.979 106.618 184.31 107.68 184.227 108.649C184.143 109.619 183.635 110.608 182.584 111.61C181.526 112.617 179.965 113.59 177.902 114.499C173.777 116.317 167.84 117.794 160.485 118.843C145.791 120.939 125.661 121.294 103.588 119.394C81.5142 117.494 61.7404 113.704 47.621 109.129C40.5535 106.839 34.9566 104.368 31.2025 101.873C29.325 100.624 27.9529 99.3988 27.0832 98.2256C26.2184 97.0591 25.8867 95.9975 25.9701 95.0279Z" stroke="#1D2353" stroke-width="2"/>
<path opacity="0.344828" d="M26.2444 87.992C26.412 87.0334 27.0046 86.0922 28.1393 85.1861C29.2805 84.2747 30.9206 83.4414 33.0552 82.7157C37.3232 81.2646 43.3661 80.3101 50.7845 79.9061C65.6048 79.099 85.6897 80.4998 107.513 84.3162C129.337 88.1327 148.705 93.6313 162.372 99.4201C169.213 102.318 174.574 105.266 178.096 108.08C179.857 109.487 181.117 110.827 181.882 112.072C182.641 113.309 182.879 114.396 182.712 115.354C182.544 116.313 181.952 117.254 180.817 118.16C179.676 119.072 178.036 119.905 175.901 120.631C171.633 122.082 165.59 123.036 158.172 123.44C143.351 124.247 123.266 122.847 101.443 119.03C79.6191 115.214 60.2507 109.715 46.5839 103.926C39.7429 101.029 34.3826 98.0801 30.8603 95.2667C29.0987 93.8596 27.8387 92.5191 27.0745 91.2746C26.3147 90.0371 26.0767 88.9507 26.2444 87.992Z" stroke="#1D2353" stroke-width="2"/>
<path opacity="0.37931" d="M27.1139 81.0602C27.3645 80.1198 28.0368 79.2338 29.2461 78.4301C30.4624 77.6216 32.169 76.9344 34.3587 76.3975C38.737 75.3239 44.84 74.8997 52.2654 75.1438C67.0996 75.6315 86.986 78.7775 108.394 84.4814C129.802 90.1854 148.617 97.3512 161.728 104.309C168.29 107.792 173.373 111.197 176.637 114.306C178.269 115.861 179.407 117.307 180.06 118.613C180.709 119.912 180.852 121.015 180.601 121.956C180.351 122.896 179.678 123.782 178.469 124.586C177.253 125.394 175.546 126.081 173.356 126.618C168.978 127.692 162.875 128.116 155.45 127.872C140.615 127.384 120.729 124.238 99.321 118.534C77.913 112.83 59.0976 105.664 45.9873 98.7066C39.4249 95.2238 34.3419 91.8192 31.0783 88.7095C29.446 87.1542 28.3076 85.709 27.6548 84.4026C27.0058 83.1036 26.8634 82.0006 27.1139 81.0602Z" stroke="#1D2353" stroke-width="2"/>
<path opacity="0.413793" d="M28.5673 74.2839C28.8989 73.369 29.6459 72.545 30.9206 71.8496C32.2028 71.1503 33.9627 70.6145 36.1909 70.2704C40.6461 69.5825 46.7629 69.6918 54.1387 70.5822C68.874 72.3609 88.4105 77.2281 109.24 84.7762C130.069 92.3243 148.189 101.103 160.643 109.177C166.877 113.218 171.643 117.053 174.624 120.435C176.114 122.127 177.122 123.666 177.659 125.024C178.192 126.375 178.238 127.486 177.906 128.401C177.575 129.316 176.828 130.14 175.553 130.835C174.271 131.535 172.511 132.07 170.283 132.414C165.827 133.102 159.711 132.993 152.335 132.103C137.6 130.324 118.063 125.457 97.2335 117.909C76.4041 110.361 58.2849 101.582 45.8308 93.5081C39.5969 89.4666 34.8301 85.632 31.8499 82.2496C30.3594 80.558 29.3513 79.0191 28.8148 77.6607C28.2814 76.3102 28.2357 75.1989 28.5673 74.2839Z" stroke="#1D2353" stroke-width="2"/>
<path opacity="0.448276" d="M30.5893 67.7137C30.9993 66.8311 31.8153 66.0753 33.1458 65.4938C34.484 64.9088 36.284 64.5284 38.5336 64.3799C43.0318 64.0829 49.1158 64.7249 56.3859 66.2547C70.9101 69.3109 89.9482 75.8623 110.04 85.1971C130.133 94.5319 147.418 104.856 159.121 113.985C164.979 118.554 169.393 122.79 172.067 126.419C173.405 128.234 174.275 129.855 174.691 131.255C175.105 132.647 175.053 133.758 174.643 134.64C174.233 135.523 173.417 136.279 172.087 136.86C170.749 137.445 168.949 137.826 166.699 137.974C162.201 138.271 156.117 137.629 148.847 136.099C134.322 133.043 115.284 126.492 95.192 117.157C75.0997 107.822 57.8145 97.4981 46.1116 88.3693C40.2537 83.7999 35.8392 79.5644 33.1651 75.9351C31.8277 74.1201 30.9575 72.4992 30.5415 71.0992C30.1279 69.7073 30.1792 68.5963 30.5893 67.7137Z" stroke="#1D2353" stroke-width="2"/>
<path opacity="0.482759" d="M33.1596 61.3983C33.645 60.5548 34.5238 59.873 35.8999 59.4096C37.284 58.9435 39.1103 58.7215 41.3643 58.7696C45.8713 58.8657 51.8762 60.0356 58.9853 62.1932C73.1879 66.5036 91.5824 74.6894 110.785 85.7398C129.987 96.7902 146.307 108.582 157.169 118.696C162.607 123.758 166.635 128.362 168.983 132.211C170.157 134.136 170.883 135.826 171.175 137.257C171.466 138.68 171.318 139.782 170.832 140.626C170.347 141.469 169.468 142.151 168.092 142.614C166.708 143.08 164.882 143.302 162.628 143.254C158.121 143.158 152.116 141.988 145.007 139.831C130.804 135.52 112.41 127.334 93.2073 116.284C74.005 105.234 57.6854 93.4422 46.8226 83.3282C41.3852 78.2656 37.3567 73.6614 35.0091 69.8129C33.835 67.8883 33.1094 66.1977 32.817 64.7668C32.5262 63.3441 32.6742 62.2418 33.1596 61.3983Z" stroke="#1D2353" stroke-width="2"/>
<path opacity="0.517241" d="M36.2537 55.3843C36.8108 54.5863 37.7456 53.9837 39.1569 53.642C40.5763 53.2983 42.415 53.2363 44.6563 53.4806C49.1377 53.9692 55.0178 55.658 61.9118 58.427C75.6847 63.9589 93.2958 73.7167 111.462 86.3986C129.628 99.0806 144.858 112.249 154.798 123.272C159.773 128.789 163.385 133.727 165.388 137.765C166.39 139.785 166.966 141.532 167.132 142.983C167.298 144.426 167.055 145.511 166.497 146.309C165.94 147.107 165.006 147.71 163.594 148.051C162.175 148.395 160.336 148.457 158.095 148.213C153.613 147.724 147.733 146.035 140.839 143.266C127.067 137.734 109.455 127.977 91.2893 115.295C73.1232 102.613 57.8934 89.4438 47.9534 78.4215C42.978 72.9043 39.366 67.9665 37.3628 63.9281C36.3609 61.9084 35.7854 60.161 35.6188 58.7101C35.4532 57.2675 35.6966 56.1823 36.2537 55.3843Z" stroke="#1D2353" stroke-width="2"/>
<path opacity="0.551724" d="M39.8437 49.7162C40.4682 48.9698 41.452 48.451 42.8877 48.2336C44.3317 48.015 46.1688 48.1134 48.3802 48.5522C52.802 49.4295 58.5126 51.6243 65.139 54.9836C78.3773 61.6949 95.071 72.9504 112.063 87.1674C129.054 101.384 143.078 115.831 152.02 127.677C156.496 133.607 159.663 138.841 161.307 143.039C162.129 145.138 162.55 146.929 162.59 148.389C162.629 149.84 162.292 150.9 161.667 151.646C161.043 152.393 160.059 152.912 158.623 153.129C157.179 153.348 155.342 153.249 153.131 152.811C148.709 151.933 142.998 149.738 136.372 146.379C123.134 139.668 106.44 128.412 89.4483 114.195C72.4567 99.9783 58.4326 85.5322 49.4911 73.6855C45.0154 67.7556 41.8476 62.5219 40.2039 58.3242C39.3819 56.2249 38.9609 54.434 38.9214 52.974C38.8821 51.5225 39.2192 50.4626 39.8437 49.7162Z" stroke="#1D2353" stroke-width="2"/>
<path opacity="0.586207" d="M43.8969 44.4361C44.5841 43.7469 45.6093 43.3158 47.0585 43.2244C48.5161 43.1324 50.3376 43.3906 52.5024 44.0204C56.8309 45.2798 62.3284 47.964 68.6369 51.888C81.2399 59.7275 96.8891 72.3952 112.577 88.039C128.265 103.683 140.977 119.296 148.851 131.877C152.793 138.175 155.493 143.664 156.765 147.989C157.4 150.152 157.664 151.973 157.576 153.431C157.488 154.88 157.06 155.907 156.373 156.596C155.686 157.285 154.661 157.716 153.211 157.808C151.754 157.9 149.932 157.642 147.768 157.012C143.439 155.752 137.942 153.068 131.633 149.144C119.03 141.305 103.381 128.637 87.693 112.993C72.0051 97.3493 59.2934 81.7358 51.4185 69.155C47.4767 62.8576 44.7771 57.3676 43.5055 53.0427C42.8696 50.8797 42.6063 49.0589 42.6942 47.6011C42.7815 46.1516 43.2097 45.1252 43.8969 44.4361Z" stroke="#1D2353" stroke-width="2"/>
<path opacity="0.62069" d="M48.3779 39.5826C49.1226 38.956 50.1815 38.6159 51.6331 38.6511C53.0932 38.6865 54.8853 39.1025 56.9869 39.9186C61.1892 41.5504 66.4318 44.7035 72.3743 49.1625C84.2461 58.0705 98.7316 72.0539 112.996 89.0055C127.261 105.957 138.564 122.619 145.312 135.838C148.69 142.455 150.901 148.16 151.791 152.579C152.236 154.789 152.339 156.626 152.125 158.071C151.911 159.507 151.395 160.492 150.651 161.119C149.906 161.745 148.847 162.085 147.396 162.05C145.935 162.015 144.143 161.599 142.042 160.783C137.839 159.151 132.597 155.998 126.654 151.539C114.783 142.631 100.297 128.647 86.0322 111.696C71.7675 94.7443 60.465 78.0823 53.7165 64.863C50.3385 58.246 48.1277 52.5417 47.2379 48.1224C46.7929 45.9122 46.6893 44.0754 46.9039 42.6308C47.1173 41.1944 47.6333 40.2092 48.3779 39.5826Z" stroke="#1D2353" stroke-width="2"/>
<path opacity="0.655172" d="M53.2486 35.1916C54.045 34.6323 55.1296 34.3858 56.5726 34.5474C58.024 34.7099 59.773 35.2804 61.7955 36.2766C65.8396 38.2685 70.7875 41.8665 76.3187 46.8264C87.3689 56.7353 100.581 71.928 113.314 90.0583C126.047 108.189 135.854 125.772 141.425 139.529C144.213 146.416 145.918 152.291 146.42 156.771C146.67 159.012 146.613 160.85 146.274 162.271C145.936 163.683 145.336 164.62 144.54 165.179C143.743 165.738 142.659 165.985 141.216 165.823C139.764 165.661 138.015 165.09 135.993 164.094C131.949 162.102 127.001 158.504 121.47 153.544C110.419 143.635 97.2076 128.443 84.4746 110.312C71.7415 92.1819 61.9342 74.5983 56.3636 60.8411C53.5751 53.9549 51.8699 48.0796 51.3686 43.5995C51.118 41.359 51.1748 39.5201 51.5145 38.0997C51.8523 36.6875 52.4522 35.751 53.2486 35.1916Z" stroke="#1D2353" stroke-width="2"/>
<path opacity="0.689655" d="M58.4662 31.2954C59.3083 30.8077 60.4102 30.6566 61.8337 30.9433C63.2654 31.2317 64.958 31.9526 66.886 33.1212C70.7411 35.458 75.3565 39.4735 80.4344 44.8967C90.579 55.7309 102.416 72.0173 113.521 91.1884C124.625 110.359 132.863 128.731 137.213 142.921C139.391 150.024 140.577 156.026 140.686 160.533C140.741 162.786 140.524 164.613 140.062 165.999C139.602 167.376 138.923 168.257 138.081 168.745C137.239 169.232 136.137 169.383 134.713 169.097C133.281 168.808 131.589 168.088 129.661 166.919C125.806 164.582 121.19 160.567 116.112 155.143C105.968 144.309 94.1305 128.023 83.0261 108.852C71.9216 89.6806 63.6842 71.3092 59.3337 57.1188C57.1561 50.0157 55.9694 44.0142 55.8605 39.5075C55.8061 37.2536 56.023 35.4267 56.4852 34.0413C56.9447 32.6639 57.624 31.7832 58.4662 31.2954Z" stroke="#1D2353" stroke-width="2"/>
<path opacity="0.724138" d="M63.9872 27.9221C64.8687 27.5096 65.9795 27.4551 67.3726 27.8649C68.7737 28.2769 70.3971 29.1425 72.2159 30.4748C75.8526 33.1387 80.1005 37.5412 84.6864 43.3863C93.8481 55.0634 104.221 72.3195 113.612 92.3855C123.004 112.451 129.609 131.471 132.706 145.986C134.256 153.252 134.915 159.334 134.631 163.833C134.489 166.083 134.113 167.885 133.532 169.224C132.954 170.557 132.201 171.375 131.319 171.787C130.438 172.2 129.327 172.254 127.934 171.844C126.533 171.432 124.909 170.567 123.091 169.234C119.454 166.571 115.206 162.168 110.62 156.323C101.458 144.646 91.0855 127.39 81.6942 107.324C72.3029 87.2579 65.6979 68.2384 62.6008 53.7228C61.0506 46.457 60.3914 40.3748 60.6758 35.8758C60.818 33.6258 61.1933 31.8247 61.7745 30.4849C62.3523 29.1527 63.1058 28.3347 63.9872 27.9221Z" stroke="#1D2353" stroke-width="2"/>
<path opacity="0.758621" d="M69.7642 25.0964C70.6783 24.7623 71.7896 24.8048 73.1417 25.3344C74.5016 25.867 76.0433 26.8708 77.7391 28.3565C81.1298 31.3272 84.9779 36.0832 89.0369 42.3057C97.146 54.737 105.975 72.8314 113.582 93.6395C121.189 114.448 126.111 133.97 127.931 148.701C128.842 156.074 128.969 162.19 128.293 166.648C127.956 168.877 127.425 170.638 126.729 171.922C126.037 173.199 125.215 173.948 124.301 174.282C123.387 174.616 122.276 174.574 120.924 174.044C119.564 173.512 118.022 172.508 116.327 171.022C112.936 168.052 109.088 163.296 105.029 157.073C96.9196 144.642 88.0903 126.547 80.4835 105.739C72.8768 84.9311 67.9547 65.4083 66.1345 50.6781C65.2233 43.3048 65.0968 37.1883 65.7722 32.7312C66.1099 30.5021 66.6408 28.7407 67.3366 27.4566C68.0283 26.1799 68.8502 25.4305 69.7642 25.0964Z" stroke="#1D2353" stroke-width="2"/>
<path opacity="0.793103" d="M75.7487 22.8384C76.6884 22.5851 77.7918 22.7244 79.0926 23.3698C80.4008 24.0189 81.8492 25.1533 83.4091 26.7811C86.528 30.036 89.9469 35.1093 93.4481 41.6619C100.443 54.7526 107.662 73.5477 113.426 94.9396C119.19 116.332 122.392 136.209 122.921 151.042C123.186 158.466 122.779 164.571 121.718 168.952C121.187 171.143 120.505 172.852 119.7 174.07C118.9 175.282 118.016 175.957 117.076 176.21C116.136 176.463 115.033 176.324 113.732 175.678C112.424 175.029 110.975 173.895 109.416 172.267C106.297 169.012 102.878 163.939 99.3765 157.386C92.3817 144.296 85.1629 125.5 79.3987 104.109C73.6345 82.7166 70.4326 62.8392 69.9031 48.0063C69.6381 40.5817 70.0451 34.4775 71.1064 30.0962C71.6371 27.905 72.3195 26.1965 73.1245 24.978C73.9249 23.7664 74.809 23.0916 75.7487 22.8384Z" stroke="#1D2353" stroke-width="2"/>
<path opacity="0.827586" d="M81.8903 21.1638C82.8485 20.9935 83.9356 21.2284 85.1752 21.9847C86.4219 22.7454 87.7659 24.0017 89.1779 25.7592C92.0013 29.2736 94.965 34.6256 97.8818 41.4584C103.709 55.1089 109.262 74.4617 113.14 96.2745C117.018 118.087 118.475 138.168 117.71 152.991C117.327 160.41 116.389 166.456 114.95 170.728C114.231 172.865 113.402 174.507 112.494 175.651C111.591 176.788 110.651 177.383 109.693 177.554C108.735 177.724 107.648 177.489 106.408 176.733C105.162 175.972 103.817 174.716 102.405 172.958C99.5821 169.444 96.6184 164.092 93.7016 157.259C87.8743 143.609 82.3212 124.256 78.4433 102.443C74.5654 80.63 73.1082 60.5491 73.8735 45.7266C74.2566 38.3071 75.1941 32.2616 76.6331 27.9894C77.3529 25.8529 78.1816 24.2103 79.0897 23.0666C79.9926 21.9294 80.9322 21.3342 81.8903 21.1638Z" stroke="#1D2353" stroke-width="2"/>
<path opacity="0.862069" d="M88.1381 20.0846C89.1075 19.9984 90.17 20.3272 91.3389 21.1887C92.5146 22.0551 93.744 23.4238 94.9974 25.2977C97.5038 29.0448 99.9898 34.6347 102.3 41.6957C106.915 55.8022 110.761 75.5653 112.723 97.6331C114.685 119.701 114.386 139.832 112.332 154.532C111.304 161.89 109.843 167.831 108.037 171.961C107.134 174.027 106.165 175.591 105.161 176.651C104.162 177.705 103.174 178.216 102.205 178.302C101.235 178.389 100.173 178.06 99.004 177.198C97.8283 176.332 96.5989 174.963 95.3455 173.089C92.8391 169.342 90.3531 163.752 88.0429 156.691C83.4276 142.585 79.5822 122.822 77.6203 100.754C75.6583 78.6861 75.9567 58.5546 78.011 43.8552C79.0393 36.4973 80.5001 30.5565 82.306 26.4261C83.2092 24.3604 84.1779 22.7963 85.1823 21.7361C86.1809 20.6819 87.1687 20.1708 88.1381 20.0846Z" stroke="#1D2353" stroke-width="2"/>
<path opacity="0.896552" d="M94.4389 19.6074C95.4121 19.606 96.4419 20.0261 97.5313 20.9862C98.627 21.9518 99.7324 23.4224 100.818 25.3985C102.988 29.3497 104.977 35.135 106.663 42.3705C110.032 56.8255 112.14 76.8486 112.171 99.0035C112.202 121.158 110.15 141.187 106.823 155.652C105.157 162.892 103.184 168.683 101.025 172.64C99.9452 174.619 98.8439 176.093 97.7509 177.062C96.6643 178.025 95.6357 178.448 94.6625 178.449C93.6892 178.451 92.6595 178.03 91.5701 177.07C90.4744 176.105 89.3689 174.634 88.2836 172.658C86.1134 168.707 84.124 162.922 82.438 155.686C79.0697 141.231 76.9614 121.208 76.9303 99.0531C76.8991 76.8982 78.9509 56.8693 82.2786 42.4048C83.9442 35.1646 85.9172 29.3737 88.0763 25.4164C89.1561 23.4373 90.2574 21.9636 91.3504 20.9949C92.4371 20.0318 93.4657 19.6088 94.4389 19.6074Z" stroke="#1D2353" stroke-width="2"/>
<path opacity="0.931035" d="M100.741 19.7345C101.711 19.818 102.7 20.3262 103.702 21.3776C104.709 22.435 105.682 23.9964 106.591 26.0595C108.409 30.1849 109.886 36.1215 110.935 43.4765C113.031 58.1701 113.386 78.3006 111.486 100.374C109.586 122.447 105.797 142.221 101.221 156.34C98.9306 163.408 96.4604 169.005 93.9647 172.759C92.7165 174.636 91.4909 176.009 90.3177 176.878C89.1512 177.743 88.0896 178.075 87.12 177.991C86.1504 177.908 85.1611 177.4 84.1596 176.348C83.1522 175.291 82.1791 173.729 81.2701 171.666C79.4525 167.541 77.975 161.604 76.926 154.249C74.8304 139.556 74.4753 119.425 76.3751 97.3519C78.275 75.2786 82.0647 55.5048 86.6403 41.3854C88.9306 34.3179 91.4008 28.721 93.8966 24.9669C95.1448 23.0894 96.3703 21.7173 97.5436 20.8476C98.7101 19.9828 99.7716 19.6511 100.741 19.7345Z" stroke="#1D2353" stroke-width="2"/>
<path opacity="0.965517" d="M106.991 20.464C107.95 20.6316 108.891 21.2242 109.797 22.3589C110.709 23.5001 111.542 25.1402 112.268 27.2748C113.719 31.5428 114.673 37.5857 115.077 45.0041C115.884 59.8244 114.484 79.9093 110.667 101.733C106.851 123.557 101.352 142.925 95.5634 156.592C92.6658 163.433 89.7172 168.793 86.9037 172.315C85.4967 174.077 84.1562 175.337 82.9116 176.101C81.6742 176.861 80.5877 177.099 79.6291 176.931C78.6704 176.764 77.7292 176.171 76.8231 175.037C75.9117 173.895 75.0784 172.255 74.3527 170.121C72.9016 165.853 71.9471 159.81 71.5431 152.391C70.7361 137.571 72.1368 117.486 75.9533 95.6624C79.7697 73.8387 85.2684 54.4703 91.0572 40.8035C93.9548 33.9625 96.9034 28.6022 99.7168 25.0799C101.124 23.3183 102.464 22.0583 103.709 21.2941C104.946 20.5343 106.033 20.2963 106.991 20.464Z" stroke="#1D2353" stroke-width="2"/>
<path d="M113.137 21.7886C114.078 22.0392 114.964 22.7115 115.767 23.9208C116.576 25.1371 117.263 26.8437 117.8 29.0333C118.873 33.4117 119.298 39.5147 119.054 46.94C118.566 61.7743 115.42 81.6607 109.716 103.069C104.012 124.477 96.8462 143.292 89.8883 156.402C86.4055 162.965 83.0009 168.048 79.8911 171.312C78.3359 172.944 76.8907 174.082 75.5842 174.735C74.2853 175.384 73.1823 175.526 72.2419 175.276C71.3015 175.025 70.4155 174.353 69.6117 173.144C68.8033 171.927 68.1161 170.221 67.5792 168.031C66.5056 163.653 66.0814 157.55 66.3255 150.124C66.8132 135.29 69.9591 115.404 75.6631 93.9957C81.3671 72.5876 88.5329 53.7723 95.4908 40.6619C98.9736 34.0995 102.378 29.0166 105.488 25.7529C107.043 24.1207 108.488 22.9823 109.795 22.3295C111.094 21.6804 112.197 21.5381 113.137 21.7886Z" stroke="#1D2353" stroke-width="2"/>
</svg>
