<svg width="221" height="145" viewBox="0 0 221 145" fill="none" xmlns="http://www.w3.org/2000/svg">
<path opacity="0.0344828" d="M101.809 185.877C105.492 175.795 100.512 164.609 90.5552 160.601C73.8605 153.88 76.4241 129.489 94.1514 126.386C104.724 124.536 111.921 114.63 110.414 104.003C107.887 86.1844 130.292 76.2088 141.843 90.0097C148.732 98.2406 160.909 99.5204 169.359 92.9017C183.527 81.804 203.368 96.2199 197.192 113.124C193.508 123.205 198.488 134.391 208.445 138.399C225.14 145.12 222.576 169.511 204.849 172.614C194.276 174.464 187.079 184.37 188.586 194.997C191.114 212.816 168.708 222.791 157.157 208.99C150.268 200.76 138.091 199.48 129.642 206.098C115.474 217.196 95.6321 202.78 101.809 185.877Z" stroke="#1D2353" stroke-width="2"/>
<path opacity="0.0689655" d="M100.59 182.92C104.747 173.16 100.411 161.862 90.7909 157.391C74.6826 149.905 78.4695 125.995 96.1029 123.853C106.633 122.573 114.249 113.169 113.311 102.602C111.741 84.9086 134.34 76.2335 145.013 90.4331C151.386 98.9131 163.338 100.806 172.02 94.7107C186.558 84.5039 205.371 99.7381 198.41 116.08C194.253 125.84 198.589 137.137 208.209 141.609C224.317 149.095 220.53 173.005 202.897 175.147C192.366 176.427 184.751 185.831 185.689 196.398C187.259 214.091 164.66 222.767 153.987 208.567C147.614 200.087 135.662 198.194 126.98 204.289C112.442 214.496 93.6291 199.262 100.59 182.92Z" stroke="#1D2353" stroke-width="2"/>
<path opacity="0.103448" d="M99.549 179.936C104.156 170.52 100.461 159.147 91.1989 154.237C75.711 146.027 80.6778 122.66 98.1661 121.459C108.624 120.741 116.626 111.854 116.247 101.379C115.613 83.8606 138.333 76.4785 148.117 91.0234C153.968 99.7213 165.665 102.208 174.548 96.6414C189.402 87.3335 207.155 103.318 199.451 119.064C194.843 128.48 198.539 139.853 207.801 144.763C223.289 152.973 218.322 176.34 200.833 177.541C190.375 178.259 182.374 187.146 182.753 197.621C183.386 215.139 160.667 222.521 150.883 207.977C145.032 199.279 133.335 196.792 124.452 202.359C109.598 211.666 91.8448 195.682 99.549 179.936Z" stroke="#1D2353" stroke-width="2"/>
<path opacity="0.137931" d="M98.6849 176.936C103.718 167.884 100.66 156.471 91.7749 151.148C76.9383 142.258 83.0388 119.491 100.332 119.211C110.688 119.043 119.043 110.688 119.211 100.332C119.491 83.0386 142.258 76.9381 151.148 91.7747C156.471 100.659 167.884 103.717 176.936 98.6847C192.053 90.2805 208.72 106.947 200.316 122.064C195.283 131.117 198.341 142.529 207.226 147.853C222.062 156.742 215.962 179.509 198.668 179.789C188.312 179.957 179.957 188.312 179.79 198.668C179.51 215.962 156.742 222.062 147.853 207.225C142.529 198.341 131.117 195.283 122.064 200.315C106.948 208.72 90.2807 192.053 98.6849 176.936Z" stroke="#1D2353" stroke-width="2"/>
<path opacity="0.172414" d="M97.9956 173.93C103.429 165.26 101.002 153.842 92.5119 148.131C78.3547 138.608 85.54 116.494 102.591 117.111C112.816 117.481 121.491 109.67 122.192 99.4623C123.36 82.4402 146.104 77.6058 154.096 92.6809C158.888 101.721 169.989 105.328 179.18 100.831C194.506 93.3324 210.065 110.612 201.005 125.07C195.572 133.741 197.999 145.158 206.489 150.869C220.646 160.392 213.46 182.506 196.409 181.89C186.184 181.52 177.51 189.33 176.809 199.538C175.64 216.56 152.896 221.394 144.905 206.319C140.112 197.279 129.011 193.672 119.821 198.169C104.495 205.668 88.9358 188.388 97.9956 173.93Z" stroke="#1D2353" stroke-width="2"/>
<path opacity="0.206897" d="M97.4795 170.928C103.287 162.656 101.483 151.269 93.4041 145.196C79.9515 135.086 88.1702 113.675 104.933 115.163C115 116.056 123.96 108.801 125.179 98.7678C127.209 82.0622 149.86 78.4745 156.953 93.7353C161.213 102.9 171.977 107.032 181.275 103.072C196.757 96.4766 211.19 114.299 201.52 128.072C195.713 136.344 197.517 147.732 205.596 153.804C219.048 163.915 210.83 185.325 194.067 183.837C184 182.944 175.04 190.199 173.821 200.232C171.791 216.938 149.139 220.526 142.047 205.265C137.787 196.1 127.023 191.968 117.725 195.929C102.242 202.524 87.8097 184.701 97.4795 170.928Z" stroke="#1D2353" stroke-width="2"/>
<path opacity="0.241379" d="M97.135 167.939C103.29 160.082 102.1 148.757 94.4455 142.351C81.7197 131.7 90.9182 111.04 107.349 113.37C117.231 114.772 126.443 108.079 128.164 98.2471C131.025 81.9007 153.516 79.5368 159.714 94.9311C163.441 104.19 173.843 108.822 183.218 105.396C198.805 99.7007 212.098 117.997 201.865 131.061C195.71 138.919 196.9 150.243 204.554 156.649C217.28 167.3 208.082 187.96 191.651 185.63C181.769 184.228 172.557 190.921 170.836 200.753C167.975 217.099 145.483 219.463 139.286 204.069C135.559 194.81 125.157 190.179 115.782 193.604C100.195 199.3 86.9017 181.003 97.135 167.939Z" stroke="#1D2353" stroke-width="2"/>
<path opacity="0.275862" d="M96.9585 164.974C103.434 157.544 102.846 146.316 95.6289 139.603C83.649 128.46 93.7716 108.593 109.828 111.735C119.501 113.628 128.93 107.504 131.136 97.8982C134.796 81.9516 157.062 80.7847 162.37 96.2612C165.567 105.584 175.585 110.689 185.006 107.795C200.647 102.992 212.791 121.692 202.041 134.026C195.566 141.457 196.154 152.685 203.371 159.397C215.351 170.541 205.228 190.407 189.171 187.265C179.499 185.373 170.069 191.496 167.864 201.102C164.204 217.049 141.937 218.216 136.63 202.739C133.433 193.416 123.415 188.312 113.993 191.205C98.3528 196.009 86.2091 177.309 96.9585 164.974Z" stroke="#1D2353" stroke-width="2"/>
<path opacity="0.310345" d="M96.9473 162.041C103.716 155.05 103.716 143.95 96.9473 136.959C85.7295 125.371 96.7188 106.337 112.362 110.259C121.801 112.625 131.414 107.074 134.085 97.7173C138.511 82.2088 160.489 82.2088 164.915 97.7173C167.586 107.074 177.199 112.625 186.638 110.259C202.281 106.337 213.27 125.371 202.053 136.959C195.284 143.95 195.284 155.05 202.053 162.041C213.27 173.629 202.281 192.662 186.638 188.741C177.199 186.375 167.586 191.926 164.915 201.283C160.489 216.791 138.511 216.791 134.085 201.283C131.414 191.926 121.801 186.375 112.362 188.741C96.7188 192.662 85.7295 173.629 96.9473 162.041Z" stroke="#1D2353" stroke-width="2"/>
<path opacity="0.344828" d="M97.0969 159.151C104.13 152.609 104.703 141.666 98.3927 134.425C87.9502 122.442 99.7472 104.277 114.941 108.943C124.123 111.763 133.886 106.788 137.002 97.7021C142.158 82.6676 163.788 83.8012 167.344 99.2923C169.493 108.654 178.683 114.622 188.109 112.777C203.707 109.725 213.541 129.024 201.903 139.849C194.87 146.391 194.297 157.334 200.607 164.575C211.05 176.558 199.253 194.723 184.059 190.057C174.877 187.237 165.114 192.212 161.998 201.298C156.842 216.332 135.212 215.199 131.656 199.708C129.507 190.346 120.317 184.378 110.891 186.223C95.2926 189.275 85.4591 169.976 97.0969 159.151Z" stroke="#1D2353" stroke-width="2"/>
<path opacity="0.37931" d="M97.4028 156.31C104.673 150.226 105.803 139.47 99.9572 132.007C90.3002 119.679 102.845 102.413 117.554 107.788C126.458 111.041 136.337 106.643 139.878 97.8486C145.726 83.3212 166.951 85.552 169.651 100.978C171.285 110.316 180.034 116.673 189.42 115.341C204.926 113.142 213.606 132.639 201.597 142.69C194.327 148.775 193.197 159.53 199.043 166.993C208.7 179.321 196.155 196.587 181.446 191.213C172.542 187.959 162.662 192.358 159.122 201.152C153.274 215.679 132.049 213.448 129.349 198.023C127.715 188.685 118.965 182.328 109.579 183.659C94.0741 185.858 85.3937 166.361 97.4028 156.31Z" stroke="#1D2353" stroke-width="2"/>
<path opacity="0.413793" d="M97.8607 153.528C105.339 147.908 107.008 137.368 101.633 129.712C92.7686 117.086 105.999 100.748 120.192 106.793C128.798 110.459 138.761 106.635 142.704 98.1518C149.206 84.1622 169.97 87.451 171.831 102.765C172.96 112.051 181.253 118.767 190.571 117.94C205.937 116.576 213.471 136.203 201.139 145.472C193.661 151.092 191.992 161.632 197.367 169.289C206.231 181.914 193.001 198.253 178.808 192.207C170.202 188.541 160.239 192.365 156.296 200.849C149.794 214.838 129.03 211.549 127.169 196.235C126.041 186.949 117.747 180.233 108.429 181.06C93.0628 182.424 85.5287 162.797 97.8607 153.528Z" stroke="#1D2353" stroke-width="2"/>
<path opacity="0.448276" d="M98.4649 150.813C106.123 145.662 108.312 135.363 103.411 127.543C95.344 114.668 109.198 99.2816 122.845 105.959C131.136 110.015 141.149 106.762 145.471 98.6072C152.587 85.1836 172.84 89.4884 173.881 104.646C174.513 113.853 182.337 120.898 191.56 120.565C206.744 120.015 213.142 139.707 200.535 148.187C192.877 153.338 190.688 163.637 195.589 171.458C203.656 184.332 189.802 199.719 176.155 193.041C167.865 188.985 157.852 192.239 153.529 200.393C146.413 213.817 126.161 209.512 125.12 194.355C124.488 185.147 116.663 178.102 107.44 178.436C92.2568 178.985 85.8586 159.293 98.4649 150.813Z" stroke="#1D2353" stroke-width="2"/>
<path opacity="0.482759" d="M99.2093 148.172C107.019 143.493 109.707 133.462 105.283 125.505C98.0142 112.43 112.43 98.0145 125.504 105.283C133.461 109.707 143.493 107.019 148.172 99.2096C155.861 86.3772 175.553 91.6536 175.795 106.611C175.942 115.714 183.286 123.058 192.389 123.205C207.346 123.447 212.623 143.139 199.79 150.828C191.981 155.507 189.293 165.539 193.717 173.496C200.985 186.57 186.57 200.986 173.495 193.717C165.538 189.293 155.507 191.981 150.828 199.791C143.139 212.623 123.447 207.347 123.205 192.389C123.057 183.286 115.714 175.943 106.611 175.795C91.6533 175.553 86.3769 155.861 99.2093 148.172Z" stroke="#1D2353" stroke-width="2"/>
<path opacity="0.517241" d="M100.089 145.613C108.022 141.408 111.187 131.667 107.241 123.602C100.769 110.374 115.682 96.9461 128.161 104.765C135.769 109.533 145.788 107.403 150.799 99.9533C159.019 87.7347 178.105 93.9361 177.572 108.652C177.247 117.625 184.101 125.237 193.059 125.852C207.75 126.861 211.922 146.49 198.912 153.387C190.979 157.592 187.813 167.334 191.76 175.399C198.232 188.626 183.318 202.054 170.84 194.235C163.231 189.468 153.212 191.597 148.201 199.047C139.982 211.266 120.896 205.064 121.428 190.348C121.753 181.375 114.899 173.764 105.942 173.149C91.2504 172.14 87.0781 152.51 100.089 145.613Z" stroke="#1D2353" stroke-width="2"/>
<path opacity="0.551724" d="M101.096 143.142C109.125 139.41 112.744 129.982 109.274 121.836C103.595 108.503 118.943 96.0745 130.804 104.402C138.05 109.489 148.025 107.909 153.345 100.832C162.052 89.2468 180.49 96.3245 179.208 110.76C178.426 119.579 184.782 127.428 193.57 128.495C207.957 130.244 211.046 149.75 197.904 155.858C189.876 159.59 186.256 169.019 189.726 177.164C195.405 190.497 180.057 202.926 168.196 194.598C160.95 189.511 150.975 191.091 145.655 198.168C136.948 209.753 118.51 202.676 119.792 188.24C120.574 179.422 114.218 171.573 105.43 170.505C91.0434 168.757 87.9539 149.25 101.096 143.142Z" stroke="#1D2353" stroke-width="2"/>
<path opacity="0.586207" d="M102.224 140.765C110.321 137.506 114.37 128.41 111.375 120.212C106.481 106.82 122.202 95.3982 133.427 104.191C140.298 109.573 150.2 108.532 155.802 101.839C164.953 90.9049 182.704 98.8083 180.702 112.926C179.477 121.567 185.329 129.622 193.926 131.127C207.971 133.585 210.003 152.91 196.776 158.235C188.679 161.494 184.629 170.59 187.625 178.788C192.518 192.181 176.798 203.602 165.573 194.809C158.702 189.427 148.8 190.468 143.198 197.161C134.047 208.095 116.295 200.192 118.297 186.075C119.523 177.433 113.671 169.378 105.073 167.873C91.0283 165.415 88.9971 146.09 102.224 140.765Z" stroke="#1D2353" stroke-width="2"/>
<path opacity="0.62069" d="M103.467 138.489C111.605 135.698 116.06 126.954 113.534 118.731C109.417 105.324 125.446 94.9142 136.02 104.129C142.505 109.781 152.305 109.267 158.164 102.968C167.716 92.6989 184.746 101.376 182.053 115.14C180.401 123.582 185.746 131.813 194.13 133.738C207.8 136.875 208.8 155.962 195.533 160.511C187.396 163.302 182.941 172.046 185.466 180.27C189.583 193.676 173.554 204.086 162.981 194.872C156.495 189.22 146.695 189.733 140.836 196.032C131.284 206.301 114.254 197.624 116.948 183.86C118.6 175.418 113.255 167.187 104.87 165.263C91.2008 162.125 90.2005 143.038 103.467 138.489Z" stroke="#1D2353" stroke-width="2"/>
<path opacity="0.655172" d="M104.816 136.318C112.968 133.992 117.803 125.617 115.742 117.394C112.389 104.016 128.665 94.619 138.574 104.212C144.665 110.108 154.335 110.108 160.426 104.212C170.334 94.619 186.611 104.016 183.258 117.394C181.197 125.617 186.032 133.992 194.184 136.318C207.446 140.103 207.446 158.897 194.184 162.682C186.032 165.008 181.197 173.384 183.258 181.607C186.611 194.984 170.334 204.381 160.426 194.789C154.335 188.892 144.665 188.892 138.574 194.789C128.665 204.381 112.389 194.984 115.742 181.607C117.803 173.384 112.968 165.008 104.816 162.682C91.5541 158.897 91.5541 140.103 104.816 136.318Z" stroke="#1D2353" stroke-width="2"/>
<path opacity="0.689655" d="M106.265 134.255C114.405 132.386 119.594 124.396 117.99 116.199C115.386 102.894 131.849 94.506 141.083 104.433C146.771 110.548 156.286 111.047 162.582 105.56C172.803 96.6523 188.298 106.715 184.318 119.675C181.866 127.659 186.192 136.149 194.092 138.858C206.917 143.256 205.95 161.706 192.736 164.74C184.595 166.608 179.406 174.599 181.01 182.795C183.614 196.101 167.152 204.489 157.918 194.562C152.229 188.446 142.715 187.948 136.418 193.435C126.197 202.342 110.702 192.28 114.682 179.319C117.134 171.335 112.809 162.846 104.908 160.137C92.0836 155.739 93.0506 137.288 106.265 134.255Z" stroke="#1D2353" stroke-width="2"/>
<path opacity="0.724138" d="M107.804 132.309C115.908 130.891 121.424 123.299 120.269 115.153C118.398 101.961 134.986 94.576 143.537 104.793C148.817 111.102 158.151 112.083 164.627 107.01C175.116 98.7939 189.806 109.467 185.233 121.981C182.41 129.708 186.227 138.282 193.859 141.354C206.219 146.33 204.321 164.388 191.196 166.685C183.093 168.104 177.576 175.696 178.732 183.841C180.603 197.033 164.015 204.419 155.463 194.201C150.183 187.892 140.85 186.911 134.373 191.984C123.884 200.201 109.194 189.528 113.767 177.013C116.59 169.286 112.773 160.713 105.142 157.64C92.7818 152.665 94.6798 134.607 107.804 132.309Z" stroke="#1D2353" stroke-width="2"/>
<path opacity="0.758621" d="M109.427 130.482C117.469 129.505 123.285 122.323 122.569 114.253C121.412 101.214 138.066 94.8213 145.931 105.286C150.798 111.762 159.926 113.207 166.557 108.552C177.27 101.031 191.134 112.257 186.004 124.301C182.829 131.754 186.141 140.382 193.488 143.796C205.359 149.314 202.568 166.933 189.573 168.512C181.531 169.49 175.715 176.672 176.431 184.741C177.589 197.78 160.934 204.174 153.069 193.709C148.202 187.233 139.074 185.787 132.443 190.442C121.73 197.964 107.866 186.738 112.996 174.694C116.171 167.241 112.859 158.613 105.512 155.198C93.6416 149.681 96.4323 132.061 109.427 130.482Z" stroke="#1D2353" stroke-width="2"/>
<path opacity="0.793103" d="M111.125 128.777C119.082 128.231 125.171 121.469 124.882 113.498C124.417 100.65 141.081 95.2356 148.257 105.903C152.709 112.521 161.608 114.413 168.367 110.178C179.262 103.351 192.282 115.075 186.632 126.623C183.126 133.788 185.938 142.441 192.985 146.177C204.344 152.199 200.702 169.337 187.875 170.217C179.918 170.764 173.83 177.525 174.118 185.496C174.583 198.345 157.919 203.759 150.744 193.091C146.292 186.473 137.392 184.581 130.633 188.816C119.738 195.643 106.718 183.919 112.368 172.371C115.874 165.207 113.062 156.553 106.015 152.817C94.6557 146.796 98.2985 129.658 111.125 128.777Z" stroke="#1D2353" stroke-width="2"/>
<path opacity="0.827586" d="M112.89 127.197C120.74 127.069 127.072 120.737 127.199 112.887C127.404 100.266 144.02 95.8134 150.508 106.642C154.543 113.376 163.194 115.694 170.055 111.879C181.088 105.746 193.252 117.91 187.118 128.942C183.303 135.804 185.621 144.455 192.356 148.49C203.184 154.977 198.732 171.594 186.11 171.798C178.261 171.925 171.928 178.258 171.801 186.108C171.596 198.729 154.98 203.181 148.492 192.353C144.457 185.619 135.807 183.301 128.945 187.115C117.912 193.249 105.748 181.085 111.882 170.052C115.697 163.191 113.379 154.54 106.644 150.505C95.8161 144.017 100.268 127.401 112.89 127.197Z" stroke="#1D2353" stroke-width="2"/>
<path opacity="0.862069" d="M114.713 125.743C122.433 126.022 128.983 120.125 129.512 112.418C130.361 100.058 146.876 96.5475 152.678 107.494C156.297 114.32 164.678 117.043 171.617 113.648C182.746 108.202 194.044 120.75 187.465 131.248C183.363 137.795 185.195 146.415 191.606 150.727C201.885 157.642 196.668 173.7 184.287 173.252C176.566 172.972 170.017 178.869 169.488 186.577C168.639 198.937 152.124 202.447 146.321 191.501C142.703 184.675 134.322 181.952 127.382 185.347C116.254 190.792 104.956 178.245 111.535 167.746C115.637 161.2 113.804 152.58 107.394 148.268C97.1143 141.353 102.332 125.295 114.713 125.743Z" stroke="#1D2353" stroke-width="2"/>
<path opacity="0.896552" d="M116.587 124.418C124.157 125.09 130.895 119.633 131.812 112.089C133.278 100.022 149.64 97.4305 154.763 108.454C157.966 115.346 166.06 118.453 173.052 115.474C184.236 110.711 194.661 123.585 187.676 133.533C183.309 139.753 184.666 148.317 190.741 152.883C200.458 160.186 194.521 175.652 182.413 174.577C174.843 173.905 168.105 179.361 167.189 186.906C165.722 198.973 149.361 201.564 144.237 190.541C141.034 183.649 132.94 180.542 125.948 183.52C114.764 188.284 104.339 175.41 111.324 165.461C115.691 159.241 114.335 150.678 108.259 146.112C98.5421 138.808 104.479 123.343 116.587 124.418Z" stroke="#1D2353" stroke-width="2"/>
<path opacity="0.931035" d="M118.502 123.222C125.903 124.272 132.801 119.26 134.09 111.897C136.146 100.154 152.304 98.4553 156.756 109.515C159.548 116.449 167.337 119.917 174.358 117.352C185.556 113.26 195.106 126.404 187.754 135.79C183.145 141.674 184.036 150.154 189.768 154.952C198.911 162.604 192.302 177.446 180.498 175.772C173.098 174.723 166.199 179.735 164.91 187.098C162.855 198.841 146.697 200.539 142.244 189.48C139.453 182.546 131.663 179.078 124.643 181.643C113.445 185.735 103.895 172.59 111.247 163.205C115.856 157.321 114.964 148.84 109.232 144.043C100.09 136.391 106.698 121.548 118.502 123.222Z" stroke="#1D2353" stroke-width="2"/>
<path opacity="0.965517" d="M120.451 122.157C127.664 123.569 134.695 119.003 136.339 111.839C138.954 100.447 154.861 99.6136 158.653 110.67C161.037 117.622 168.507 121.428 175.532 119.271C186.706 115.839 195.381 129.198 187.702 138.01C182.873 143.551 183.312 151.923 188.693 156.929C197.252 164.889 190.02 179.082 178.549 176.837C171.337 175.426 164.305 179.992 162.661 187.155C160.046 198.548 144.139 199.381 140.348 188.325C137.964 181.373 130.493 177.567 123.468 179.724C112.294 183.156 103.619 169.796 111.298 160.985C116.127 155.444 115.688 147.072 110.307 142.066C101.748 134.105 108.98 119.913 120.451 122.157Z" stroke="#1D2353" stroke-width="2"/>
<path d="M122.425 121.223C129.432 122.979 136.569 118.859 138.551 111.912C141.695 100.897 157.305 100.897 160.449 111.912C162.431 118.859 169.568 122.979 176.576 121.223C187.687 118.438 195.492 131.957 187.524 140.187C182.5 145.377 182.5 153.618 187.524 158.808C195.492 167.038 187.687 180.557 176.576 177.772C169.568 176.015 162.431 180.136 160.449 187.083C157.305 198.098 141.695 198.098 138.551 187.083C136.569 180.136 129.432 176.015 122.425 177.772C111.314 180.557 103.508 167.038 111.476 158.808C116.501 153.618 116.501 145.377 111.476 140.187C103.508 131.957 111.314 118.438 122.425 121.223Z" stroke="#1D2353" stroke-width="2"/>
</svg>
